<svg width="104" height="27" viewBox="0 0 104 27" fill="none" xmlns="http://www.w3.org/2000/svg">
<path d="M24.8475 8.27343L25.8475 8.27343L25.8475 7.27343L25.8475 5.07656C25.8475 3.31098 24.4162 1.87969 22.6506 1.87969L4.19687 1.87969C2.43129 1.87969 1 3.31098 1 5.07656C1 6.84215 2.43129 8.27344 4.19688 8.27344L13.4237 8.27344L24.8475 8.27343Z" fill="#2AAFD3" stroke="#757574" stroke-width="2"/>
<path d="M21.9349 14.7766L10.0038 2.84547C8.75537 1.59702 6.73122 1.59702 5.48276 2.84547C4.23431 4.09393 4.2343 6.11807 5.48276 7.36653L17.4139 19.2976C18.6623 20.5461 20.6865 20.5461 21.9349 19.2976C23.1834 18.0492 23.1834 16.025 21.9349 14.7766Z" fill="#2AAFD3" stroke="#757574" stroke-width="2"/>
<path d="M17.098 9.94064L10.0028 2.8454C8.75432 1.59694 6.73017 1.59694 5.48172 2.8454C4.23326 4.09386 4.23326 6.11801 5.48172 7.36647L12.577 14.4617C13.8254 15.7102 15.8496 15.7102 17.098 14.4617C18.3465 13.2132 18.3465 11.1891 17.098 9.94064Z" fill="#8DE29E" stroke="#757574" stroke-width="2"/>
<path d="M17.1032 24.1518L21.927 19.328C23.1884 18.0667 23.1884 16.0216 21.927 14.7603C20.6657 13.4989 18.6207 13.4989 17.3593 14.7603L12.5355 19.5841C11.2741 20.8455 11.2741 22.8905 12.5355 24.1518C13.7968 25.4132 15.8419 25.4132 17.1032 24.1518Z" fill="#2AAFD3" stroke="#757574" stroke-width="2"/>
<path d="M12.5477 9.86036L19.5262 2.88186C20.7942 1.61387 22.85 1.61387 24.118 2.88186C25.386 4.14984 25.386 6.20565 24.118 7.47364L17.1395 14.4521C15.8715 15.7201 13.8157 15.7201 12.5477 14.4521C11.2797 13.1842 11.2797 11.1283 12.5477 9.86036Z" fill="#8DE29E" stroke="#757574" stroke-width="2"/>
<path d="M25.8477 13.8637L25.8477 5.07617C25.8477 3.31059 24.4164 1.8793 22.6508 1.8793C20.8852 1.8793 19.4539 3.31059 19.4539 5.07617L19.4539 13.8637C19.4539 15.6293 20.8852 17.0605 22.6508 17.0605C24.4164 17.0605 25.8477 15.6293 25.8477 13.8637Z" fill="#8DE29E" stroke="#757574" stroke-width="2"/>
<path d="M10.9082 13.8637L10.9082 5.07617C10.9082 3.31059 9.47691 1.8793 7.71133 1.8793C5.94574 1.8793 4.51445 3.31059 4.51445 5.07617L4.51445 13.8637C4.51445 15.6293 5.94574 17.0605 7.71133 17.0605C9.47691 17.0605 10.9082 15.6293 10.9082 13.8637Z" fill="#8DE29E" stroke="#757574" stroke-width="2"/>
<path d="M17.1009 19.6106L10.0034 12.513C8.75497 11.2646 6.73083 11.2646 5.48237 12.513C4.23391 13.7615 4.23391 15.7857 5.48237 17.0341L12.5799 24.1316C13.8283 25.3801 15.8525 25.3801 17.1009 24.1316C18.3494 22.8832 18.3494 20.859 17.1009 19.6106Z" fill="#2AAFD3" stroke="#757574" stroke-width="2"/>
<path d="M24.8475 8.27343L25.8475 8.27343L25.8475 7.27343L25.8475 5.07656C25.8475 3.31098 24.4162 1.87969 22.6506 1.87969L4.19687 1.87969C2.43129 1.87969 1 3.31098 1 5.07656C1 6.84215 2.43129 8.27344 4.19688 8.27344L13.4237 8.27344L24.8475 8.27343Z" fill="#2AAFD3" fill-opacity="0.5" stroke="#757574" stroke-width="2"/>
<path d="M21.9379 14.7805L10.003 2.84565C8.75457 1.5972 6.73043 1.5972 5.48197 2.84565C4.23351 4.09411 4.23351 6.11826 5.48197 7.36672L17.4168 19.3015C18.6653 20.55 20.6894 20.55 21.9379 19.3015C23.1863 18.0531 23.1863 16.0289 21.9379 14.7805Z" fill="#2AAFD3" fill-opacity="0.5" stroke="#757574" stroke-width="2"/>
<path d="M4.51445 7.27344L4.51445 8.27344L5.51445 8.27344L7.71133 8.27344C9.47691 8.27344 10.9082 6.84215 10.9082 5.07656C10.9082 3.31098 9.47691 1.87969 7.71133 1.87969C5.94574 1.87969 4.51445 3.31097 4.51445 5.07656L4.51445 7.27344Z" fill="black" stroke="#757574" stroke-width="2"/>
<path d="M22.6506 2.87969C23.8639 2.87969 24.8475 3.86326 24.8475 5.07656V5.07656L24.8475 7.27343L13.4237 7.27344L4.19688 7.27344C2.98358 7.27344 2 6.28986 2 5.07656V5.07656C2 3.86326 2.98357 2.87969 4.19687 2.87969L22.6506 2.87969Z" fill="#2AAFD3"/>
<path d="M6.18987 6.65942C5.33193 5.80149 5.33194 4.41051 6.18987 3.55258V3.55258C7.0478 2.69465 8.43879 2.69465 9.29672 3.55258L21.2278 15.4837C22.0858 16.3416 22.0858 17.7326 21.2278 18.5905V18.5905C20.3699 19.4485 18.9789 19.4485 18.121 18.5905L6.18987 6.65942Z" fill="#2AAFD3"/>
<path d="M6.18882 6.65936C5.33089 5.80143 5.33089 4.41044 6.18882 3.55251V3.55251C7.04676 2.69458 8.43774 2.69457 9.29567 3.55251L16.3909 10.6477C17.2488 11.5057 17.2488 12.8967 16.3909 13.7546V13.7546C15.533 14.6125 14.142 14.6125 13.2841 13.7546L6.18882 6.65936Z" fill="#8DE29E"/>
<path d="M18.0664 15.4674C18.9372 14.5966 20.3491 14.5966 21.2199 15.4674V15.4674C22.0907 16.3382 22.0907 17.7501 21.2199 18.6209L16.3961 23.4447C15.5253 24.3155 14.1134 24.3155 13.2426 23.4447V23.4447C12.3718 22.5739 12.3718 21.162 13.2426 20.2912L18.0664 15.4674Z" fill="#2AAFD3"/>
<path d="M23.4109 6.76653C24.2883 5.88907 24.2883 4.46643 23.4109 3.58897V3.58897C22.5334 2.71151 21.1108 2.71151 20.2333 3.58897L13.2548 10.5675C12.3773 11.4449 12.3773 12.8676 13.2548 13.745V13.745C14.1323 14.6225 15.5549 14.6225 16.4324 13.745L23.4109 6.76653Z" fill="#8DE29E"/>
<path d="M20.4539 5.07617C20.4539 3.86287 21.4375 2.8793 22.6508 2.8793V2.8793C23.8641 2.8793 24.8477 3.86287 24.8477 5.07617L24.8477 13.8637C24.8477 15.077 23.8641 16.0605 22.6508 16.0605V16.0605C21.4375 16.0605 20.4539 15.077 20.4539 13.8637L20.4539 5.07617Z" fill="#8DE29E"/>
<path d="M5.51445 5.07617C5.51445 3.86287 6.49803 2.8793 7.71133 2.8793V2.8793C8.92463 2.8793 9.9082 3.86287 9.9082 5.07617L9.9082 13.8637C9.9082 15.077 8.92463 16.0605 7.71133 16.0605V16.0605C6.49803 16.0605 5.51445 15.077 5.51445 13.8637L5.51445 5.07617Z" fill="#8DE29E"/>
<path d="M6.18948 16.327C5.33154 15.4691 5.33154 14.0781 6.18948 13.2202V13.2202C7.04741 12.3622 8.43839 12.3622 9.29632 13.2202L16.3938 20.3177C17.2518 21.1756 17.2518 22.5666 16.3938 23.4245V23.4245C15.5359 24.2825 14.1449 24.2825 13.287 23.4245L6.18948 16.327Z" fill="#2AAFD3"/>
<path d="M22.6506 2.87969C23.8639 2.87969 24.8475 3.86326 24.8475 5.07656V5.07656L24.8475 7.27343L13.4237 7.27344L4.19688 7.27344C2.98358 7.27344 2 6.28986 2 5.07656V5.07656C2 3.86326 2.98357 2.87969 4.19687 2.87969L22.6506 2.87969Z" fill="#2AAFD3" fill-opacity="0.5"/>
<path d="M6.18907 6.65961C5.33114 5.80168 5.33114 4.41069 6.18907 3.55276V3.55276C7.04701 2.69483 8.43799 2.69483 9.29592 3.55276L21.2308 15.4876C22.0887 16.3455 22.0887 17.7365 21.2308 18.5944V18.5944C20.3728 19.4524 18.9818 19.4524 18.1239 18.5944L6.18907 6.65961Z" fill="#2AAFD3" fill-opacity="0.5"/>
<path d="M5.51445 5.07656C5.51445 3.86326 6.49803 2.87969 7.71133 2.87969V2.87969C8.92463 2.87969 9.9082 3.86326 9.9082 5.07656V5.07656C9.9082 6.28986 8.92463 7.27344 7.71133 7.27344L5.51445 7.27344L5.51445 5.07656Z" fill="#757574"/>
<path d="M47.0382 5.62011V8.15803H42.4891V21.3993H39.5489V8.15803H35V5.62011H47.0382ZM51.6536 5.62011V21.3993H48.7135V5.62011H51.6536ZM56.6242 21.3993H53.6064L60.341 5.62011H63.5032L70.3822 21.3993H67.22L65.4116 17.0959H60.1414L61.151 14.558H64.3464L61.8499 8.63251L56.6242 21.3993ZM72.3237 21.3993V5.62011H75.375L80.7561 17.5924L86.0262 5.62011H88.9663V21.3993H86.2481V10.409L81.9432 21.3993H79.4357L75.0421 10.409V21.3993H72.3237ZM92.0174 20.7373V18.089C93.6077 18.6774 95.4051 18.9717 97.4097 18.9717C99.8431 18.9717 101.06 18.1626 101.06 16.5442C101.06 15.3672 100.313 14.7787 98.8188 14.7787H96.3335C93.0862 14.7787 91.4626 13.3074 91.4626 10.3649C91.4626 7.12814 93.7741 5.50977 98.3971 5.50977C100.172 5.50977 101.855 5.76723 103.445 6.28218V8.93042C101.855 8.34193 100.172 8.04769 98.3971 8.04769C95.7342 8.04769 94.403 8.82008 94.403 10.3649C94.403 11.5419 95.0464 12.1304 96.3335 12.1304H98.8188C102.273 12.1304 104 13.6017 104 16.5442C104 19.8546 101.803 21.5098 97.4097 21.5098C95.4051 21.5098 93.6077 21.2523 92.0174 20.7373Z" fill="#757574"/>
</svg>
