<svg width="102" height="24" viewBox="0 0 102 24" fill="none" xmlns="http://www.w3.org/2000/svg">
<path d="M20.6506 0.878832C21.8639 0.878832 22.8475 1.86241 22.8475 3.07571V3.07571L22.8475 5.27258L11.4237 5.27258L2.19688 5.27258C0.983577 5.27258 -4.29935e-08 4.28901 -9.60285e-08 3.07571V3.07571C-1.49064e-07 1.86241 0.983574 0.878833 2.19687 0.878833L20.6506 0.878832Z" fill="#191919"/>
<path d="M4.18987 4.66028C3.33193 3.80235 3.33194 2.41137 4.18987 1.55343V1.55343C5.0478 0.695501 6.43879 0.695501 7.29672 1.55343L19.2278 13.4845C20.0858 14.3425 20.0858 15.7335 19.2278 16.5914V16.5914C18.3699 17.4493 16.9789 17.4493 16.121 16.5914L4.18987 4.66028Z" fill="#191919"/>
<path d="M4.18882 4.66027C3.33089 3.80234 3.33089 2.41136 4.18882 1.55342V1.55342C5.04676 0.695491 6.43774 0.69549 7.29567 1.55342L14.3909 8.64866C15.2488 9.50659 15.2488 10.8976 14.3909 11.7555V11.7555C13.533 12.6134 12.142 12.6134 11.2841 11.7555L4.18882 4.66027Z" fill="#323232"/>
<path d="M16.0664 13.4669C16.9372 12.5961 18.3491 12.5961 19.2199 13.4669V13.4669C20.0907 14.3377 20.0907 15.7496 19.2199 16.6204L14.3961 21.4442C13.5253 22.3151 12.1134 22.3151 11.2426 21.4442V21.4442C10.3718 20.5734 10.3718 19.1615 11.2426 18.2907L16.0664 13.4669Z" fill="#191919"/>
<path d="M21.4109 4.76641C22.2883 3.88895 22.2883 2.46631 21.4109 1.58884V1.58884C20.5334 0.711383 19.1108 0.711384 18.2333 1.58884L11.2548 8.56734C10.3773 9.44481 10.3773 10.8675 11.2548 11.7449V11.7449C12.1323 12.6224 13.5549 12.6224 14.4324 11.7449L21.4109 4.76641Z" fill="#323232"/>
<path d="M18.4539 3.07568C18.4539 1.86238 19.4375 0.87881 20.6508 0.87881V0.87881C21.8641 0.878809 22.8477 1.86238 22.8477 3.07568L22.8477 11.8632C22.8477 13.0765 21.8641 14.0601 20.6508 14.0601V14.0601C19.4375 14.0601 18.4539 13.0765 18.4539 11.8632L18.4539 3.07568Z" fill="#323232"/>
<path d="M3.51445 3.07568C3.51445 1.86238 4.49803 0.878809 5.71133 0.878809V0.878809C6.92463 0.878809 7.9082 1.86238 7.9082 3.07568L7.9082 11.8632C7.9082 13.0765 6.92463 14.0601 5.71133 14.0601V14.0601C4.49803 14.0601 3.51445 13.0765 3.51445 11.8632L3.51445 3.07568Z" fill="#323232"/>
<path d="M4.18948 14.3266C3.33154 13.4686 3.33154 12.0777 4.18948 11.2197V11.2197C5.04741 10.3618 6.43839 10.3618 7.29632 11.2197L14.3938 18.3172C15.2518 19.1752 15.2518 20.5662 14.3938 21.4241V21.4241C13.5359 22.282 12.1449 22.282 11.287 21.4241L4.18948 14.3266Z" fill="#191919"/>
<path d="M20.6506 0.878832C21.8639 0.878832 22.8475 1.86241 22.8475 3.07571V3.07571L22.8475 5.27258L11.4237 5.27258L2.19688 5.27258C0.983577 5.27258 -4.29935e-08 4.28901 -9.60285e-08 3.07571V3.07571C-1.49064e-07 1.86241 0.983574 0.878833 2.19687 0.878833L20.6506 0.878832Z" fill="#323232" fill-opacity="0.5"/>
<path d="M4.18907 4.66028C3.33114 3.80235 3.33114 2.41136 4.18907 1.55343V1.55343C5.04701 0.695498 6.43799 0.695498 7.29592 1.55343L19.2308 13.4883C20.0887 14.3462 20.0887 15.7372 19.2308 16.5951V16.5951C18.3728 17.453 16.9818 17.453 16.1239 16.5951L4.18907 4.66028Z" fill="#323232" fill-opacity="0.5"/>
<path d="M4.01445 4.77252L4.01445 3.07565C4.01445 2.13849 4.77417 1.37877 5.71133 1.37877C6.64849 1.37877 7.4082 2.13849 7.4082 3.07565C7.4082 4.0128 6.64849 4.77252 5.71133 4.77252L4.01445 4.77252Z" fill="#191919" stroke="#323232"/>
<path d="M45.0382 3.62084V6.15877H40.4891V19.4H37.5489V6.15877H33V3.62084H45.0382ZM49.6536 3.62084V19.4H46.7135V3.62084H49.6536ZM54.6242 19.4H51.6064L58.341 3.62084H61.5032L68.3822 19.4H65.22L63.4116 15.0966H58.1414L59.151 12.5587H62.3464L59.8499 6.63324L54.6242 19.4ZM70.3237 19.4V3.62084H73.375L78.7561 15.5932L84.0262 3.62084H86.9663V19.4H84.2481V8.40978L79.9432 19.4H77.4357L73.0421 8.40978V19.4H70.3237ZM90.0174 18.738V16.0897C91.6077 16.6782 93.4051 16.9724 95.4097 16.9724C97.8431 16.9724 99.0598 16.1633 99.0598 14.5449C99.0598 13.3679 98.313 12.7794 96.8188 12.7794H94.3335C91.0862 12.7794 89.4626 11.3081 89.4626 8.36563C89.4626 5.12887 91.7741 3.5105 96.3971 3.5105C98.1723 3.5105 99.8551 3.76796 101.445 4.28291V6.93116C99.8551 6.34266 98.1723 6.04842 96.3971 6.04842C93.7342 6.04842 92.403 6.82081 92.403 8.36563C92.403 9.54265 93.0464 10.1311 94.3335 10.1311H96.8188C100.273 10.1311 102 11.6024 102 14.5449C102 17.8553 99.8032 19.5105 95.4097 19.5105C93.4051 19.5105 91.6077 19.253 90.0174 18.738Z" fill="#323232"/>
</svg>
