<svg width="46" height="15" viewBox="0 0 46 15" fill="none" xmlns="http://www.w3.org/2000/svg">
<path d="M4 -4.03491e-08C6.20914 -1.80649e-08 8 1.79086 8 4L8 8.5C8 9.32843 7.32843 10 6.5 10V10C5.67158 10 5 9.32843 5 8.5L5 4.80769C5 3.42698 3.88072 2.30769 2.5 2.30769L1.15385 2.30769C0.516595 2.30769 -7.82914e-08 1.7911 -5.04362e-08 1.15385V1.15385C-2.25811e-08 0.516594 0.516595 -7.54871e-08 1.15385 -6.90589e-08L4 -4.03491e-08Z" fill="#8DE29E"/>
<path d="M10.5 3C11.3284 3 12 3.67157 12 4.5L12 4.75L12 8.5C12 9.32843 11.3284 10 10.5 10V10C9.67157 10 9 9.32843 9 8.5L9 4.75L9 4.5C9 3.67157 9.67157 3 10.5 3V3Z" fill="#2AAFD3"/>
<circle cx="10.5" cy="1.5" r="1.5" fill="#8DE29E"/>
<path d="M16 -1.31134e-07C14.3431 -5.87108e-08 13 1.34315 13 3L13 8.5C13 9.32843 13.6716 10 14.5 10V10C15.3284 10 16 9.32843 16 8.5L16 3.30769C16 2.75541 16.4477 2.30769 17 2.30769V2.30769C17.5523 2.30769 18 1.85998 18 1.30769L18 1.15385C18 0.516594 17.4834 -1.46098e-07 16.8462 -1.3967e-07L16 -1.31134e-07V-1.31134e-07Z" fill="#2AAFD3"/>
<path d="M18 -1.31134e-07C19.6569 -5.87108e-08 21 1.34315 21 3L21 8.5C21 9.32843 20.3284 10 19.5 10V10C18.6716 10 18 9.32843 18 8.5L18 3.30769C18 2.75541 17.5523 2.30769 17 2.30769V2.30769C16.4477 2.30769 16 1.85998 16 1.30769L16 1.15385C16 0.516594 16.5166 -1.46098e-07 17.1538 -1.3967e-07L18 -1.31134e-07V-1.31134e-07Z" fill="#5CC9B9"/>
<path d="M18.5 4.99994C19.8807 4.99994 21 6.11923 21 7.49994L21 8.49997C21 9.3284 20.3284 9.99998 19.5 9.99998V9.99998C18.6716 9.99998 18 9.3284 18 8.49998L18 7.99994C18 7.44765 17.5523 6.99994 17 6.99994V6.99994C16.4477 6.99994 16 6.55222 16 5.99994V5.99994C16 5.44765 16.4477 4.99994 17 4.99994L18.5 4.99994Z" fill="#8DE29E"/>
<path d="M26 -3.72964e-08C28.2091 -1.66982e-08 30 1.79086 30 4L30 8.5C30 9.32843 29.3284 10 28.5 10V10C27.6716 10 27 9.32843 27 8.5L27 3.30769C27 2.75541 26.5523 2.30769 26 2.30769V2.30769C25.4477 2.30769 25 2.75541 25 3.30769L25 8.5C25 9.32843 24.3284 10 23.5 10V10C22.6716 10 22 9.32843 22 8.5L22 4C22 1.79086 23.7909 -5.78946e-08 26 -3.72964e-08V-3.72964e-08Z" fill="#8DE29E"/>
<path d="M31 -3.72964e-08C33.2091 -1.66982e-08 35 1.79086 35 4L35 8.5C35 9.32843 34.3284 10 33.5 10V10C32.6716 10 32 9.32843 32 8.5L32 3.30769C32 2.75541 31.5523 2.30769 31 2.30769V2.30769C30.4477 2.30769 30 2.75541 30 3.30769L30 8.5C30 9.32843 29.3284 10 28.5 10V10C27.6716 10 27 9.32843 27 8.5L27 4C27 1.79086 28.7909 -5.78946e-08 31 -3.72964e-08V-3.72964e-08Z" fill="#2AAFD3"/>
<path d="M26 -3.72964e-08C28.2091 -1.66982e-08 30 1.79086 30 4L30 8.5C30 9.32843 29.3284 10 28.5 10V10C27.6716 10 27 9.32843 27 8.5L27 3.30769C27 2.75541 26.5523 2.30769 26 2.30769V2.30769C25.4477 2.30769 25 2.75541 25 3.30769L25 8.5C25 9.32843 24.3284 10 23.5 10V10C22.6716 10 22 9.32843 22 8.5L22 4C22 1.79086 23.7909 -5.78946e-08 26 -3.72964e-08V-3.72964e-08Z" fill="#8DE29E" fill-opacity="0.5"/>
<path d="M46 6.92308C46 8.62241 44.6224 10 42.9231 10L37.1538 10C36.5166 10 36 9.48341 36 8.84615V8.84615C36 8.2089 36.5166 7.69231 37.1538 7.69231L42.2308 7.69231C42.6556 7.69231 43 7.34791 43 6.92308V6.92308C43 6.49824 42.6556 6.15385 42.2308 6.15385L41.1538 6.15385C40.5166 6.15385 40 5.63725 40 5V5C40 4.36275 40.5166 3.84615 41.1538 3.84615L43 3.84615C44.6569 3.84615 46 5.1893 46 6.84615L46 6.92308Z" fill="#8DE29E"/>
<path d="M36 3.07692C36 1.37759 37.3776 0 39.0769 0L44.8462 0C45.4834 0 46 0.516595 46 1.15385V1.15385C46 1.7911 45.4834 2.30769 44.8462 2.30769L39.7692 2.30769C39.3444 2.30769 39 2.65209 39 3.07692V3.07692C39 3.50176 39.3444 3.84615 39.7692 3.84615L41.8462 3.84615C42.4834 3.84615 43 4.36275 43 5V5C43 5.63725 42.4834 6.15385 41.8462 6.15385L39.0769 6.15385C37.3776 6.15385 36 4.77626 36 3.07692V3.07692Z" fill="#2AAFD3"/>
<path d="M46 6.92308C46 8.62241 44.6224 10 42.9231 10L37.1538 10C36.5166 10 36 9.48341 36 8.84615V8.84615C36 8.2089 36.5166 7.69231 37.1538 7.69231L42.2308 7.69231C42.6556 7.69231 43 7.34791 43 6.92308V6.92308C43 6.49824 42.6556 6.15385 42.2308 6.15385L40.1538 6.15385C39.5166 6.15385 39 5.63725 39 5V5C39 4.36275 39.5166 3.84615 40.1538 3.84615L42.9231 3.84615C44.6224 3.84615 46 5.22374 46 6.92308V6.92308Z" fill="#8DE29E" fill-opacity="0.5"/>
<path d="M1.22949 12.5781V14H0.986328V12.5781H1.22949ZM1.67578 12.5781V12.7734H0.543945V12.5781H1.67578ZM2.125 12.5781V14H1.87988V12.5781H2.125ZM2.5293 12.5781H2.74805L3.15918 13.6748L3.56934 12.5781H3.78809L3.24512 14H3.07129L2.5293 12.5781ZM2.42969 12.5781H2.6377L2.67383 13.5273V14H2.42969V12.5781ZM3.67969 12.5781H3.88867V14H3.64355V13.5273L3.67969 12.5781ZM4.75098 12.7676L4.32617 14H4.06934L4.60449 12.5781H4.76855L4.75098 12.7676ZM5.10645 14L4.68066 12.7676L4.66211 12.5781H4.82715L5.36426 14H5.10645ZM5.08594 13.4727V13.667H4.3125V13.4727H5.08594ZM6.46289 13.1719V13.3662H5.70801V13.1719H6.46289ZM5.76855 12.5781V14H5.52344V12.5781H5.76855ZM6.65137 12.5781V14H6.40723V12.5781H6.65137ZM7.70312 12.5781V14H7.45801V12.5781H7.70312ZM9.13574 12.5781V14H8.89062L8.25293 12.9814V14H8.00781V12.5781H8.25293L8.89258 13.5986V12.5781H9.13574ZM9.9834 12.5781V14H9.74023V12.5781H9.9834ZM10.4297 12.5781V12.7734H9.29785V12.5781H10.4297ZM11.5479 13.8057V14H10.793V13.8057H11.5479ZM10.8623 12.5781V14H10.6172V12.5781H10.8623ZM11.4492 13.1719V13.3633H10.793V13.1719H11.4492ZM11.543 12.5781V12.7734H10.793V12.5781H11.543ZM11.748 12.5781H12.251C12.359 12.5781 12.4512 12.5944 12.5273 12.627C12.6035 12.6595 12.6618 12.7077 12.7021 12.7715C12.7432 12.8346 12.7637 12.9128 12.7637 13.0059C12.7637 13.0768 12.7507 13.1393 12.7246 13.1934C12.6986 13.2474 12.6618 13.293 12.6143 13.3301C12.5667 13.3665 12.5101 13.3949 12.4443 13.415L12.3701 13.4512H11.918L11.916 13.2568H12.2549C12.3135 13.2568 12.3623 13.2464 12.4014 13.2256C12.4404 13.2048 12.4697 13.1764 12.4893 13.1406C12.5094 13.1042 12.5195 13.0632 12.5195 13.0176C12.5195 12.9681 12.5098 12.9251 12.4902 12.8887C12.4714 12.8516 12.4421 12.8232 12.4023 12.8037C12.3626 12.7835 12.3122 12.7734 12.251 12.7734H11.9932V14H11.748V12.5781ZM12.5596 14L12.2256 13.3613L12.4824 13.3604L12.8213 13.9873V14H12.5596ZM14.1357 12.5781V14H13.8906L13.2529 12.9814V14H13.0078V12.5781H13.2529L13.8926 13.5986V12.5781H14.1357ZM14.999 12.7676L14.5742 14H14.3174L14.8525 12.5781H15.0166L14.999 12.7676ZM15.3545 14L14.9287 12.7676L14.9102 12.5781H15.0752L15.6123 14H15.3545ZM15.334 13.4727V13.667H14.5605V13.4727H15.334ZM16.6621 13.8057V14H15.9482V13.8057H16.6621ZM16.0166 12.5781V14H15.7715V12.5781H16.0166ZM17.9033 12.7676L17.4785 14H17.2217L17.7568 12.5781H17.9209L17.9033 12.7676ZM18.2588 14L17.833 12.7676L17.8145 12.5781H17.9795L18.5166 14H18.2588ZM18.2383 13.4727V13.667H17.4648V13.4727H18.2383ZM19.4561 12.5781H19.7002V13.5283C19.7002 13.6364 19.6768 13.7269 19.6299 13.7998C19.583 13.8727 19.5192 13.9277 19.4385 13.9648C19.3584 14.0013 19.2689 14.0195 19.1699 14.0195C19.0677 14.0195 18.9766 14.0013 18.8965 13.9648C18.8164 13.9277 18.7533 13.8727 18.707 13.7998C18.6615 13.7269 18.6387 13.6364 18.6387 13.5283V12.5781H18.8828V13.5283C18.8828 13.5967 18.8945 13.653 18.918 13.6973C18.9414 13.7409 18.9746 13.7731 19.0176 13.7939C19.0605 13.8148 19.1113 13.8252 19.1699 13.8252C19.2285 13.8252 19.279 13.8148 19.3213 13.7939C19.3643 13.7731 19.3975 13.7409 19.4209 13.6973C19.4443 13.653 19.4561 13.5967 19.4561 13.5283V12.5781ZM20.3799 14H20.0762L20.0781 13.8057H20.3799C20.4678 13.8057 20.5413 13.7865 20.6006 13.748C20.6605 13.7096 20.7054 13.6546 20.7354 13.583C20.766 13.5114 20.7812 13.4261 20.7812 13.3271V13.25C20.7812 13.1732 20.7725 13.1051 20.7549 13.0459C20.738 12.9867 20.7126 12.9368 20.6787 12.8965C20.6455 12.8561 20.6045 12.8255 20.5557 12.8047C20.5075 12.7839 20.4518 12.7734 20.3887 12.7734H20.0703V12.5781H20.3887C20.4831 12.5781 20.5693 12.5941 20.6475 12.626C20.7256 12.6572 20.793 12.7025 20.8496 12.7617C20.9069 12.821 20.9508 12.8919 20.9814 12.9746C21.012 13.0573 21.0273 13.1497 21.0273 13.252V13.3271C21.0273 13.4294 21.012 13.5218 20.9814 13.6045C20.9508 13.6872 20.9069 13.7581 20.8496 13.8174C20.7923 13.876 20.724 13.9212 20.6445 13.9531C20.5658 13.9844 20.4775 14 20.3799 14ZM20.2119 12.5781V14H19.9668V12.5781H20.2119ZM21.5352 12.5781V14H21.29V12.5781H21.5352ZM22.3955 12.5781V14H22.1523V12.5781H22.3955ZM22.8418 12.5781V12.7734H21.71V12.5781H22.8418ZM23.5801 12.5781H23.7988L24.21 13.6748L24.6201 12.5781H24.8389L24.2959 14H24.1221L23.5801 12.5781ZM23.4805 12.5781H23.6885L23.7246 13.5273V14H23.4805V12.5781ZM24.7305 12.5781H24.9395V14H24.6943V13.5273L24.7305 12.5781ZM25.8018 12.7676L25.377 14H25.1201L25.6553 12.5781H25.8193L25.8018 12.7676ZM26.1572 14L25.7314 12.7676L25.7129 12.5781H25.8779L26.415 14H26.1572ZM26.1367 13.4727V13.667H25.3633V13.4727H26.1367ZM27.7021 12.5781V14H27.457L26.8193 12.9814V14H26.5742V12.5781H26.8193L27.459 13.5986V12.5781H27.7021ZM28.5654 12.7676L28.1406 14H27.8838L28.4189 12.5781H28.583L28.5654 12.7676ZM28.9209 14L28.4951 12.7676L28.4766 12.5781H28.6416L29.1787 14H28.9209ZM28.9004 13.4727V13.667H28.127V13.4727H28.9004ZM30.4141 13.2734V13.8164C30.3939 13.8431 30.3623 13.8724 30.3193 13.9043C30.277 13.9355 30.2207 13.9626 30.1504 13.9854C30.0801 14.0081 29.9925 14.0195 29.8877 14.0195C29.7985 14.0195 29.7168 14.0046 29.6426 13.9746C29.5684 13.944 29.5042 13.8994 29.4502 13.8408C29.3968 13.7822 29.3555 13.7109 29.3262 13.627C29.2969 13.5423 29.2822 13.446 29.2822 13.3379V13.2393C29.2822 13.1318 29.2956 13.0361 29.3223 12.9521C29.3496 12.8675 29.3887 12.7959 29.4395 12.7373C29.4902 12.6787 29.5514 12.6344 29.623 12.6045C29.6953 12.5739 29.777 12.5586 29.8682 12.5586C29.9847 12.5586 30.0811 12.5781 30.1572 12.6172C30.234 12.6556 30.2933 12.709 30.335 12.7773C30.3766 12.8457 30.403 12.9238 30.4141 13.0117H30.1738C30.166 12.9622 30.1507 12.918 30.1279 12.8789C30.1058 12.8398 30.0739 12.8092 30.0322 12.7871C29.9912 12.7643 29.9378 12.7529 29.8721 12.7529C29.8154 12.7529 29.7656 12.7637 29.7227 12.7852C29.6797 12.8066 29.6439 12.8382 29.6152 12.8799C29.5872 12.9215 29.5661 12.9723 29.5518 13.0322C29.5374 13.0921 29.5303 13.1605 29.5303 13.2373V13.3379C29.5303 13.416 29.5384 13.4854 29.5547 13.5459C29.5716 13.6064 29.5957 13.6576 29.627 13.6992C29.6589 13.7409 29.6976 13.7725 29.7432 13.7939C29.7887 13.8148 29.8402 13.8252 29.8975 13.8252C29.9535 13.8252 29.9993 13.8206 30.0352 13.8115C30.071 13.8018 30.0993 13.7904 30.1201 13.7773C30.1416 13.7637 30.1582 13.7507 30.1699 13.7383V13.4561H29.874V13.2734H30.4141ZM31.6162 13.8057V14H30.8613V13.8057H31.6162ZM30.9307 12.5781V14H30.6855V12.5781H30.9307ZM31.5176 13.1719V13.3633H30.8613V13.1719H31.5176ZM31.6113 12.5781V12.7734H30.8613V12.5781H31.6113ZM31.916 12.5781H32.1348L32.5459 13.6748L32.9561 12.5781H33.1748L32.6318 14H32.458L31.916 12.5781ZM31.8164 12.5781H32.0244L32.0605 13.5273V14H31.8164V12.5781ZM33.0664 12.5781H33.2754V14H33.0303V13.5273L33.0664 12.5781ZM34.4971 13.8057V14H33.7422V13.8057H34.4971ZM33.8115 12.5781V14H33.5664V12.5781H33.8115ZM34.3984 13.1719V13.3633H33.7422V13.1719H34.3984ZM34.4922 12.5781V12.7734H33.7422V12.5781H34.4922ZM35.8252 12.5781V14H35.5801L34.9424 12.9814V14H34.6973V12.5781H34.9424L35.582 13.5986V12.5781H35.8252ZM36.6729 12.5781V14H36.4297V12.5781H36.6729ZM37.1191 12.5781V12.7734H35.9873V12.5781H37.1191ZM38.5059 13.6338C38.5059 13.6045 38.5013 13.5785 38.4922 13.5557C38.4837 13.5329 38.4684 13.512 38.4463 13.4932C38.4242 13.4743 38.3929 13.4561 38.3525 13.4385C38.3128 13.4202 38.262 13.4017 38.2002 13.3828C38.1325 13.362 38.07 13.3389 38.0127 13.3135C37.9561 13.2874 37.9066 13.2575 37.8643 13.2236C37.8219 13.1891 37.7891 13.1497 37.7656 13.1055C37.7422 13.0605 37.7305 13.0088 37.7305 12.9502C37.7305 12.8923 37.7425 12.8395 37.7666 12.792C37.7913 12.7445 37.8262 12.7035 37.8711 12.6689C37.9167 12.6338 37.9704 12.6068 38.0322 12.5879C38.0941 12.5684 38.1624 12.5586 38.2373 12.5586C38.3428 12.5586 38.4336 12.5781 38.5098 12.6172C38.5866 12.6562 38.6455 12.7087 38.6865 12.7744C38.7282 12.8402 38.749 12.9128 38.749 12.9922H38.5059C38.5059 12.9453 38.4958 12.904 38.4756 12.8682C38.4561 12.8317 38.4261 12.8031 38.3857 12.7822C38.346 12.7614 38.2956 12.751 38.2344 12.751C38.1764 12.751 38.1283 12.7598 38.0898 12.7773C38.0514 12.7949 38.0228 12.8187 38.0039 12.8486C37.985 12.8786 37.9756 12.9124 37.9756 12.9502C37.9756 12.9769 37.9818 13.0013 37.9941 13.0234C38.0065 13.0449 38.0254 13.0651 38.0508 13.084C38.0762 13.1022 38.1081 13.1195 38.1465 13.1357C38.1849 13.152 38.2301 13.1676 38.2822 13.1826C38.361 13.2061 38.4297 13.2321 38.4883 13.2607C38.5469 13.2887 38.5957 13.3206 38.6348 13.3564C38.6738 13.3923 38.7031 13.4329 38.7227 13.4785C38.7422 13.5234 38.752 13.5745 38.752 13.6318C38.752 13.6917 38.7399 13.7458 38.7158 13.7939C38.6917 13.8415 38.6572 13.8822 38.6123 13.916C38.568 13.9492 38.5146 13.9749 38.4521 13.9932C38.3903 14.0107 38.3213 14.0195 38.2451 14.0195C38.1768 14.0195 38.1094 14.0104 38.043 13.9922C37.9772 13.974 37.9173 13.9463 37.8633 13.9092C37.8092 13.8714 37.7663 13.8245 37.7344 13.7686C37.7025 13.7119 37.6865 13.6458 37.6865 13.5703H37.9316C37.9316 13.6165 37.9395 13.6559 37.9551 13.6885C37.9714 13.721 37.9938 13.7477 38.0225 13.7686C38.0511 13.7887 38.0843 13.8037 38.1221 13.8135C38.1605 13.8232 38.2015 13.8281 38.2451 13.8281C38.3024 13.8281 38.3503 13.82 38.3887 13.8037C38.4277 13.7874 38.457 13.7646 38.4766 13.7354C38.4961 13.7061 38.5059 13.6722 38.5059 13.6338ZM39.1045 12.5781L39.4346 13.2568L39.7646 12.5781H40.0361L39.5576 13.4766V14H39.3105V13.4766L38.832 12.5781H39.1045ZM40.9238 13.6338C40.9238 13.6045 40.9193 13.5785 40.9102 13.5557C40.9017 13.5329 40.8864 13.512 40.8643 13.4932C40.8421 13.4743 40.8109 13.4561 40.7705 13.4385C40.7308 13.4202 40.68 13.4017 40.6182 13.3828C40.5505 13.362 40.488 13.3389 40.4307 13.3135C40.374 13.2874 40.3245 13.2575 40.2822 13.2236C40.2399 13.1891 40.207 13.1497 40.1836 13.1055C40.1602 13.0605 40.1484 13.0088 40.1484 12.9502C40.1484 12.8923 40.1605 12.8395 40.1846 12.792C40.2093 12.7445 40.2441 12.7035 40.2891 12.6689C40.3346 12.6338 40.3883 12.6068 40.4502 12.5879C40.512 12.5684 40.5804 12.5586 40.6553 12.5586C40.7607 12.5586 40.8516 12.5781 40.9277 12.6172C41.0046 12.6562 41.0635 12.7087 41.1045 12.7744C41.1462 12.8402 41.167 12.9128 41.167 12.9922H40.9238C40.9238 12.9453 40.9137 12.904 40.8936 12.8682C40.874 12.8317 40.8441 12.8031 40.8037 12.7822C40.764 12.7614 40.7135 12.751 40.6523 12.751C40.5944 12.751 40.5462 12.7598 40.5078 12.7773C40.4694 12.7949 40.4408 12.8187 40.4219 12.8486C40.403 12.8786 40.3936 12.9124 40.3936 12.9502C40.3936 12.9769 40.3997 13.0013 40.4121 13.0234C40.4245 13.0449 40.4434 13.0651 40.4688 13.084C40.4941 13.1022 40.526 13.1195 40.5645 13.1357C40.6029 13.152 40.6481 13.1676 40.7002 13.1826C40.779 13.2061 40.8477 13.2321 40.9062 13.2607C40.9648 13.2887 41.0137 13.3206 41.0527 13.3564C41.0918 13.3923 41.1211 13.4329 41.1406 13.4785C41.1602 13.5234 41.1699 13.5745 41.1699 13.6318C41.1699 13.6917 41.1579 13.7458 41.1338 13.7939C41.1097 13.8415 41.0752 13.8822 41.0303 13.916C40.986 13.9492 40.9326 13.9749 40.8701 13.9932C40.8083 14.0107 40.7393 14.0195 40.6631 14.0195C40.5947 14.0195 40.5273 14.0104 40.4609 13.9922C40.3952 13.974 40.3353 13.9463 40.2812 13.9092C40.2272 13.8714 40.1842 13.8245 40.1523 13.7686C40.1204 13.7119 40.1045 13.6458 40.1045 13.5703H40.3496C40.3496 13.6165 40.3574 13.6559 40.373 13.6885C40.3893 13.721 40.4118 13.7477 40.4404 13.7686C40.4691 13.7887 40.5023 13.8037 40.54 13.8135C40.5785 13.8232 40.6195 13.8281 40.6631 13.8281C40.7204 13.8281 40.7682 13.82 40.8066 13.8037C40.8457 13.7874 40.875 13.7646 40.8945 13.7354C40.9141 13.7061 40.9238 13.6722 40.9238 13.6338ZM41.9717 12.5781V14H41.7285V12.5781H41.9717ZM42.418 12.5781V12.7734H41.2861V12.5781H42.418ZM43.5361 13.8057V14H42.7812V13.8057H43.5361ZM42.8506 12.5781V14H42.6055V12.5781H42.8506ZM43.4375 13.1719V13.3633H42.7812V13.1719H43.4375ZM43.5312 12.5781V12.7734H42.7812V12.5781H43.5312ZM43.8359 12.5781H44.0547L44.4658 13.6748L44.876 12.5781H45.0947L44.5518 14H44.3779L43.8359 12.5781ZM43.7363 12.5781H43.9443L43.9805 13.5273V14H43.7363V12.5781ZM44.9863 12.5781H45.1953V14H44.9502V13.5273L44.9863 12.5781Z" fill="#757574"/>
</svg>
