<svg width="110" height="27" viewBox="0 0 110 27" fill="none" xmlns="http://www.w3.org/2000/svg">
<path d="M21.3994 21.5494L21.3994 7C21.3994 3.68629 18.7131 1 15.3994 1L4.65374 1C2.63582 1 0.999975 2.63585 0.999975 4.65376C0.999975 6.67168 2.63582 8.30753 4.65374 8.30753L8.49963 8.30753C10.7088 8.30753 12.4996 10.0984 12.4996 12.3075L12.4996 21.5494C12.4996 24.007 14.4919 25.9993 16.9495 25.9993C19.4071 25.9993 21.3994 24.007 21.3994 21.5494Z" fill="#8DE29E" stroke="#757574" stroke-width="2"/>
<path d="M30.5996 12.9247L30.5996 12.3497C30.5996 9.89206 28.6073 7.89978 26.1497 7.89978C23.6921 7.89978 21.6998 9.89206 21.6998 12.3497L21.6998 12.9247L21.6998 21.5494C21.6998 24.007 23.6921 25.9993 26.1497 25.9993C28.6073 25.9993 30.5996 24.007 30.5996 21.5494L30.5996 12.9247Z" fill="#2AAFD3" stroke="#757574" stroke-width="2"/>
<circle cx="26.1491" cy="5.44989" r="4.44989" fill="#8DE29E" stroke="#757574" stroke-width="2"/>
<path d="M30.8984 21.5494L30.8984 7C30.8984 3.68629 33.5847 1 36.8984 1L38.7982 1L40.7443 1C42.7622 1 44.3981 2.63585 44.3981 4.65377L44.3981 5.0076C44.3981 6.8301 42.9207 8.30753 41.0982 8.30753C40.3802 8.30753 39.7982 8.88953 39.7982 9.60745L39.7982 21.5494C39.7982 24.007 37.8059 25.9993 35.3483 25.9993C32.8907 25.9993 30.8984 24.007 30.8984 21.5494Z" fill="#2AAFD3" stroke="#757574" stroke-width="2"/>
<path d="M51.2979 21.5494L51.2979 7C51.2979 3.68629 48.6116 1 45.2979 1L43.3981 1L41.452 1C39.434 1 37.7982 2.63585 37.7982 4.65377L37.7982 5.0076C37.7982 6.8301 39.2756 8.30753 41.0981 8.30753C41.8161 8.30753 42.3981 8.88953 42.3981 9.60745L42.3981 21.5494C42.3981 24.007 44.3903 25.9993 46.848 25.9993C49.3056 25.9993 51.2979 24.007 51.2979 21.5494Z" fill="#5CC9B9" stroke="#757574" stroke-width="2"/>
<path d="M51.2979 21.5493L51.2979 18.4995C51.2979 15.1858 48.6116 12.4995 45.2978 12.4995L41.0981 12.4995C39.2756 12.4995 37.7982 13.9769 37.7982 15.7994C37.7982 17.6219 39.2756 19.0994 41.0981 19.0994C41.8161 19.0994 42.3981 19.6814 42.3981 20.3993L42.3981 21.5493C42.3981 24.007 44.3903 25.9992 46.848 25.9992C49.3056 25.9992 51.2979 24.007 51.2979 21.5493Z" fill="#8DE29E" stroke="#757574" stroke-width="2"/>
<path d="M71.998 21.5494L71.998 7C71.998 3.68629 69.3118 1 65.998 1L57.5986 1C54.2849 1 51.5986 3.6863 51.5986 7.00001L51.5986 21.5494C51.5986 24.007 53.5909 25.9993 56.0485 25.9993C58.5061 25.9993 60.4984 24.007 60.4984 21.5494L60.4984 9.60746C60.4984 8.88953 61.0804 8.30753 61.7983 8.30753C62.5163 8.30753 63.0983 8.88953 63.0983 9.60746L63.0983 21.5494C63.0983 24.007 65.0905 25.9993 67.5482 25.9993C70.0058 25.9993 71.998 24.007 71.998 21.5494Z" fill="#8DE29E" stroke="#757574" stroke-width="2"/>
<path d="M83.4971 21.5494L83.4971 7C83.4971 3.68629 80.8108 1 77.4971 1L69.0976 1C65.7839 1 63.0976 3.6863 63.0976 7.00001L63.0976 21.5494C63.0976 24.007 65.0899 25.9993 67.5475 25.9993C70.0051 25.9993 71.9974 24.007 71.9974 21.5494L71.9974 9.60746C71.9974 8.88953 72.5794 8.30753 73.2974 8.30753C74.0153 8.30753 74.5973 8.88953 74.5973 9.60746L74.5973 21.5494C74.5973 24.007 76.5896 25.9993 79.0472 25.9993C81.5048 25.9993 83.4971 24.007 83.4971 21.5494Z" fill="#2AAFD3" stroke="#757574" stroke-width="2"/>
<path d="M71.998 21.5494L71.998 7C71.998 3.68629 69.3118 1 65.998 1L57.5986 1C54.2849 1 51.5986 3.6863 51.5986 7.00001L51.5986 21.5494C51.5986 24.007 53.5909 25.9993 56.0485 25.9993C58.5061 25.9993 60.4984 24.007 60.4984 21.5494L60.4984 9.60746C60.4984 8.88953 61.0804 8.30753 61.7983 8.30753C62.5163 8.30753 63.0983 8.88953 63.0983 9.60746L63.0983 21.5494C63.0983 24.007 65.0905 25.9993 67.5482 25.9993C70.0058 25.9993 71.998 24.007 71.998 21.5494Z" fill="#8DE29E" fill-opacity="0.5" stroke="#757574" stroke-width="2"/>
<path d="M87.4504 25.9993L102.796 25.9993C106.11 25.9993 108.796 23.313 108.796 19.9993L108.796 15.8459C108.796 12.5321 106.11 9.84585 102.796 9.84586L96.6501 9.84585C94.6322 9.84585 92.9963 11.4817 92.9963 13.4996C92.9963 15.5175 94.6322 17.1534 96.6501 17.1534L99.1269 17.1534C99.5517 17.1534 99.8961 17.4978 99.8961 17.9226C99.8961 18.3474 99.5517 18.6917 99.1269 18.6917L87.4504 18.6917C85.4324 18.6917 83.7966 20.3276 83.7966 22.3455C83.7966 24.3634 85.4324 25.9993 87.4504 25.9993Z" fill="#8DE29E" stroke="#757574" stroke-width="2"/>
<path d="M105.142 1L89.7969 1C86.4832 1 83.7969 3.68629 83.7969 7L83.7969 11.1534C83.7969 14.4671 86.4832 17.1534 89.7969 17.1534L98.2426 17.1534C100.261 17.1534 101.896 15.5176 101.896 13.4996C101.896 11.4817 100.261 9.84588 98.2426 9.84588L93.4658 9.84588C93.041 9.84588 92.6967 9.50151 92.6967 9.0767C92.6967 8.6519 93.041 8.30753 93.4658 8.30753L105.142 8.30753C107.16 8.30753 108.796 6.67168 108.796 4.65377C108.796 2.63585 107.16 1 105.142 1Z" fill="#2AAFD3" stroke="#757574" stroke-width="2"/>
<path d="M87.4504 25.9993L102.796 25.9993C106.11 25.9993 108.796 23.313 108.796 19.9993L108.796 15.8459C108.796 12.5321 106.11 9.84585 102.796 9.84585L94.3502 9.84585C92.3322 9.84585 90.6964 11.4817 90.6964 13.4996C90.6964 15.5175 92.3322 17.1534 94.3502 17.1534L99.1269 17.1534C99.5517 17.1534 99.8961 17.4978 99.8961 17.9226C99.8961 18.3474 99.5517 18.6917 99.1269 18.6917L87.4504 18.6917C85.4324 18.6917 83.7966 20.3276 83.7966 22.3455C83.7966 24.3634 85.4324 25.9993 87.4504 25.9993Z" fill="#8DE29E" fill-opacity="0.5" stroke="#757574" stroke-width="2"/>
<path d="M15.3994 2.00067C18.1608 2.00067 20.3994 4.23925 20.3994 7.00067L20.3994 21.5501C20.3994 23.4554 18.8548 25 16.9495 25V25C15.0442 25 13.4996 23.4554 13.4996 21.5501L13.4996 12.3082C13.4996 9.54678 11.2611 7.3082 8.49963 7.3082L4.65374 7.3082C3.18811 7.3082 1.99998 6.12007 1.99998 4.65444V4.65444C1.99998 3.1888 3.18811 2.00067 4.65374 2.00067L15.3994 2.00067Z" fill="#8DE29E"/>
<path d="M26.1497 8.90051C28.055 8.90051 29.5996 10.4451 29.5996 12.3504L29.5996 12.9254L29.5996 21.5501C29.5996 23.4555 28.055 25 26.1497 25V25C24.2444 25 22.6998 23.4555 22.6998 21.5501L22.6998 12.9254L22.6998 12.3504C22.6998 10.4451 24.2444 8.90051 26.1497 8.90051V8.90051Z" fill="#2AAFD3"/>
<circle cx="26.1491" cy="5.45057" r="3.44989" fill="#8DE29E"/>
<path d="M36.8984 2.00073C34.137 2.00073 31.8984 4.23931 31.8984 7.00073L31.8984 21.5501C31.8984 23.4555 33.443 25 35.3483 25V25C37.2537 25 38.7982 23.4555 38.7982 21.5501L38.7982 9.60819C38.7982 8.33797 39.8279 7.30826 41.0982 7.30826V7.30826C42.3684 7.30826 43.3981 6.27855 43.3981 5.00833L43.3981 4.6545C43.3981 3.18886 42.21 2.00073 40.7443 2.00073L38.7982 2.00073L36.8984 2.00073Z" fill="#2AAFD3"/>
<path d="M45.2979 2.00073C48.0593 2.00073 50.2979 4.23931 50.2979 7.00073L50.2979 21.5501C50.2979 23.4555 48.7533 25 46.848 25V25C44.9426 25 43.3981 23.4555 43.3981 21.5501L43.3981 9.60819C43.3981 8.33797 42.3683 7.30826 41.0981 7.30826V7.30826C39.8279 7.30826 38.7982 6.27855 38.7982 5.00833L38.7982 4.6545C38.7982 3.18886 39.9863 2.00073 41.452 2.00073L43.3981 2.00073L45.2979 2.00073Z" fill="#5CC9B9"/>
<path d="M45.2978 13.5002C48.0593 13.5002 50.2979 15.7388 50.2979 18.5002L50.2979 21.5501C50.2979 23.4554 48.7533 25 46.848 25V25C44.9426 25 43.3981 23.4554 43.3981 21.5501L43.3981 20.4C43.3981 19.1298 42.3683 18.1001 41.0981 18.1001V18.1001C39.8279 18.1001 38.7982 17.0704 38.7982 15.8002V15.8002C38.7982 14.53 39.8279 13.5002 41.0981 13.5002L45.2978 13.5002Z" fill="#8DE29E"/>
<path d="M65.998 2.00067C68.7595 2.00067 70.998 4.23925 70.998 7.00067L70.998 21.5501C70.998 23.4554 69.4535 25 67.5482 25V25C65.6428 25 64.0983 23.4554 64.0983 21.5501L64.0983 9.60813C64.0983 8.33792 63.0685 7.3082 61.7983 7.3082V7.3082C60.5281 7.3082 59.4984 8.33792 59.4984 9.60813L59.4984 21.5501C59.4984 23.4554 57.9538 25 56.0485 25V25C54.1432 25 52.5986 23.4554 52.5986 21.5501L52.5986 7.00068C52.5986 4.23925 54.8372 2.00067 57.5986 2.00067L65.998 2.00067Z" fill="#8DE29E"/>
<path d="M77.4971 2.00067C80.2585 2.00067 82.4971 4.23925 82.4971 7.00067L82.4971 21.5501C82.4971 23.4554 80.9525 25 79.0472 25V25C77.1419 25 75.5973 23.4554 75.5973 21.5501L75.5973 9.60813C75.5973 8.33792 74.5676 7.3082 73.2974 7.3082V7.3082C72.0271 7.3082 70.9974 8.33792 70.9974 9.60813L70.9974 21.5501C70.9974 23.4554 69.4529 25 67.5475 25V25C65.6422 25 64.0976 23.4554 64.0976 21.5501L64.0976 7.00068C64.0976 4.23925 66.3362 2.00067 69.0976 2.00067L77.4971 2.00067Z" fill="#2AAFD3"/>
<path d="M65.998 2.00067C68.7595 2.00067 70.998 4.23925 70.998 7.00067L70.998 21.5501C70.998 23.4554 69.4535 25 67.5482 25V25C65.6428 25 64.0983 23.4554 64.0983 21.5501L64.0983 9.60813C64.0983 8.33792 63.0685 7.3082 61.7983 7.3082V7.3082C60.5281 7.3082 59.4984 8.33792 59.4984 9.60813L59.4984 21.5501C59.4984 23.4554 57.9538 25 56.0485 25V25C54.1432 25 52.5986 23.4554 52.5986 21.5501L52.5986 7.00068C52.5986 4.23925 54.8372 2.00067 57.5986 2.00067L65.998 2.00067Z" fill="#8DE29E" fill-opacity="0.5"/>
<path d="M107.796 20C107.796 22.7614 105.557 25 102.796 25L87.4504 25C85.9847 25 84.7966 23.8119 84.7966 22.3462V22.3462C84.7966 20.8806 85.9847 19.6925 87.4504 19.6925L99.1269 19.6925C100.104 19.6925 100.896 18.9004 100.896 17.9233V17.9233C100.896 16.9462 100.104 16.1541 99.1269 16.1541L96.6501 16.1541C95.1845 16.1541 93.9963 14.966 93.9963 13.5004V13.5004C93.9963 12.0347 95.1845 10.8466 96.6501 10.8466L102.796 10.8466C105.557 10.8466 107.796 13.0852 107.796 15.8466L107.796 20Z" fill="#8DE29E"/>
<path d="M84.7969 7.00073C84.7969 4.23931 87.0355 2.00073 89.7969 2.00073L105.142 2.00073C106.608 2.00073 107.796 3.18886 107.796 4.6545V4.6545C107.796 6.12013 106.608 7.30826 105.142 7.30826L93.4658 7.30826C92.4888 7.30826 91.6967 8.10035 91.6967 9.07744V9.07744C91.6967 10.0545 92.4888 10.8466 93.4658 10.8466L98.2426 10.8466C99.7083 10.8466 100.896 12.0347 100.896 13.5004V13.5004C100.896 14.966 99.7083 16.1541 98.2426 16.1541L89.7969 16.1541C87.0354 16.1541 84.7969 13.9156 84.7969 11.1541L84.7969 7.00073Z" fill="#2AAFD3"/>
<path d="M107.796 20C107.796 22.7614 105.557 25 102.796 25L87.4504 25C85.9847 25 84.7966 23.8119 84.7966 22.3462V22.3462C84.7966 20.8806 85.9847 19.6925 87.4504 19.6925L99.1269 19.6925C100.104 19.6925 100.896 18.9004 100.896 17.9233V17.9233C100.896 16.9462 100.104 16.1541 99.1269 16.1541L94.3502 16.1541C92.8845 16.1541 91.6964 14.966 91.6964 13.5004V13.5004C91.6964 12.0347 92.8845 10.8466 94.3502 10.8466L102.796 10.8466C105.557 10.8466 107.796 13.0852 107.796 15.8466L107.796 20Z" fill="#8DE29E" fill-opacity="0.5"/>
</svg>
