<svg width="83" height="16" viewBox="0 0 83 16" fill="none" xmlns="http://www.w3.org/2000/svg">
<path d="M8.07519 -5.3214e-08C10.2843 -2.38248e-08 12.0752 1.79086 12.0752 4V4L12.0752 13.125C12.0752 14.7128 10.788 16 9.20019 16V16C7.61238 16 6.3252 14.7128 6.3252 13.125L6.3252 7.1625C6.3252 5.4159 4.9093 4 3.1627 4L2.0002 4C0.895627 4 0.000195427 3.10457 0.000195475 2V2C0.000195524 0.89543 0.895626 -1.48727e-07 2.0002 -1.34033e-07L6.3252 -7.64951e-08L8.07519 -5.3214e-08Z" fill="#2AAFD3"/>
<path d="M17.9502 0C19.538 0 20.8252 1.28718 20.8252 2.875L20.8252 4L20.8252 13.125C20.8252 14.7128 19.538 16 17.9502 16V16C16.3624 16 15.0752 14.7128 15.0752 13.125L15.0752 4L15.0752 2.875C15.0752 1.28718 16.3624 0 17.9502 0V0Z" fill="#3491BB"/>
<path d="M29.5752 0C26.3996 0 23.8252 2.57436 23.8252 5.75L23.8252 13.125C23.8252 14.7128 25.1124 16 26.7002 16V16C28.288 16 29.5752 14.7128 29.5752 13.125L29.5752 5.4375C29.5752 4.64359 30.2188 4 31.0127 4V4L32.7502 4C33.8548 4 34.7502 3.10457 34.7502 2V2C34.7502 0.89543 33.8548 0 32.7502 0L29.5752 0V0Z" fill="#3491BB"/>
<path d="M32.4502 0C35.6258 0 38.2002 2.57436 38.2002 5.75L38.2002 13.125C38.2002 14.7128 36.913 16 35.3252 16V16C33.7374 16 32.4502 14.7128 32.4502 13.125L32.4502 5.4375C32.4502 4.64359 31.8066 4 31.0127 4V4L28.7002 4C27.5956 4 26.7002 3.10457 26.7002 2V2C26.7002 0.89543 27.5956 0 28.7002 0L32.4502 0V0Z" fill="#3491BB"/>
<path d="M33.8002 7.19995C36.2302 7.19995 38.2002 9.1699 38.2002 11.6L38.2002 13.125C38.2002 14.7128 36.913 16 35.3252 16L34.8502 16C33.5247 16 32.4502 14.9254 32.4502 13.6L32.4502 12.6375C32.4502 11.8435 31.8066 11.2 31.0127 11.2V11.2L28.7002 11.2C27.5956 11.2 26.7002 10.3045 26.7002 9.19995V9.19995C26.7002 8.09538 27.5956 7.19995 28.7002 7.19995L32.4502 7.19995L33.8002 7.19995Z" fill="#2AAFD3"/>
<path d="M48.3877 -2.18557e-07C52.3572 -9.78512e-08 55.5752 3.21795 55.5752 7.1875L55.5752 13.125C55.5752 14.7128 54.288 16 52.7002 16V16C51.1124 16 49.8252 14.7128 49.8252 13.125L49.8252 5.4375C49.8252 4.64359 49.1816 4 48.3877 4V4C47.5938 4 46.9502 4.64359 46.9502 5.4375L46.9502 13.125C46.9502 14.7128 45.663 16 44.0752 16V16C42.4874 16 41.2002 14.7128 41.2002 13.125L41.2002 7.1875C41.2002 3.21795 44.4181 -3.39263e-07 48.3877 -2.18557e-07V-2.18557e-07Z" fill="#2AAFD3"/>
<path d="M57.0127 -2.18557e-07C60.9822 -9.78512e-08 64.2002 3.21795 64.2002 7.1875L64.2002 13.125C64.2002 14.7128 62.913 16 61.3252 16V16C59.7374 16 58.4502 14.7128 58.4502 13.125L58.4502 5.4375C58.4502 4.64359 57.8066 4 57.0127 4V4C56.2188 4 55.5752 4.64359 55.5752 5.4375L55.5752 13.125C55.5752 14.7128 54.288 16 52.7002 16V16C51.1124 16 49.8252 14.7128 49.8252 13.125L49.8252 7.1875C49.8252 3.21795 53.0431 -3.39263e-07 57.0127 -2.18557e-07V-2.18557e-07Z" fill="#3491BB"/>
<path d="M48.3877 -2.18557e-07C52.3572 -9.78512e-08 55.5752 3.21795 55.5752 7.1875L55.5752 13.125C55.5752 14.7128 54.288 16 52.7002 16V16C51.1124 16 49.8252 14.7128 49.8252 13.125L49.8252 5.4375C49.8252 4.64359 49.1816 4 48.3877 4V4C47.5938 4 46.9502 4.64359 46.9502 5.4375L46.9502 13.125C46.9502 14.7128 45.663 16 44.0752 16V16C42.4874 16 41.2002 14.7128 41.2002 13.125L41.2002 7.1875C41.2002 3.21795 44.4181 -3.39263e-07 48.3877 -2.18557e-07V-2.18557e-07Z" fill="#2AAFD3" fill-opacity="0.5"/>
<path d="M72.3752 8C72.3752 6.89543 73.2706 6 74.3752 6H75.5377H76.9752H78.7252C80.9343 6 82.7252 7.79086 82.7252 10V10V12V12C82.7252 14.2091 80.9343 16 78.7252 16H76.9752H72.9502H69.2002C68.0956 16 67.2002 15.1046 67.2002 14V14C67.2002 12.8954 68.0956 12 69.2002 12H75.9752C76.5275 12 76.9752 11.5523 76.9752 11V11C76.9752 10.4477 76.5275 10 75.9752 10H75.5377H74.3752C73.2706 10 72.3752 9.10457 72.3752 8V8Z" fill="#2AAFD3"/>
<path d="M77.5506 8C77.5506 9.10457 76.6552 10 75.5506 10H74.3881H72.9506H71.2006C68.9914 10 67.2006 8.20914 67.2006 6V6V4V4C67.2006 1.79086 68.9914 -1.49012e-07 71.2006 -1.49012e-07H72.9506H76.9756H80.7256C81.8302 -1.49012e-07 82.7256 0.89543 82.7256 2V2C82.7256 3.10457 81.8302 4 80.7256 4H73.9506C73.3983 4 72.9506 4.44772 72.9506 5V5C72.9506 5.55228 73.3983 6 73.9506 6H74.3881H75.5506C76.6552 6 77.5506 6.89543 77.5506 8V8Z" fill="#3491BB"/>
<path d="M72.3752 8C72.3752 6.89543 73.2706 6 74.3752 6H75.5377H76.9752H78.7252C80.9343 6 82.7252 7.79086 82.7252 10V10V12V12C82.7252 14.2091 80.9343 16 78.7252 16H76.9752H72.9502H69.2002C68.0956 16 67.2002 15.1046 67.2002 14V14C67.2002 12.8954 68.0956 12 69.2002 12H75.9752C76.5275 12 76.9752 11.5523 76.9752 11V11C76.9752 10.4477 76.5275 10 75.9752 10H75.5377H74.3752C73.2706 10 72.3752 9.10457 72.3752 8V8Z" fill="#2AAFD3" fill-opacity="0.5"/>
</svg>
