<svg width="208" height="24" viewBox="0 0 208 24" fill="none" xmlns="http://www.w3.org/2000/svg">
<path d="M18.4092 18.741L18.4092 7.36914C18.4092 4.05543 15.7229 1.36914 12.4092 1.36914L4.22277 1.36914C2.44307 1.36914 1.00034 2.81187 1.00034 4.59157C1.00034 6.37127 2.44307 7.814 4.22277 7.814L6.81561 7.814C8.92272 7.814 10.6309 9.52215 10.6309 11.6293L10.6309 18.741C10.6309 20.889 12.3721 22.6302 14.52 22.6302C16.6679 22.6302 18.4092 20.889 18.4092 18.741Z" fill="#8DE29E" stroke="#757574" stroke-width="2"/>
<path d="M26.1113 11.5181L26.1113 11.0366C26.1113 8.88869 24.3701 7.14746 22.2222 7.14746C20.0742 7.14746 18.333 8.8887 18.333 11.0366L18.333 11.5181L18.333 18.741C18.333 20.889 20.0742 22.6302 22.2222 22.6302C24.3701 22.6302 26.1113 20.889 26.1113 18.741L26.1113 11.5181Z" fill="#2AAFD3" stroke="#757574" stroke-width="2"/>
<circle cx="22.2222" cy="5.2583" r="3.88916" fill="#8DE29E" stroke="#757574" stroke-width="2"/>
<path d="M26.0391 18.7409L26.0391 7.36902C26.0391 4.05531 28.7254 1.36902 32.0391 1.36902L32.8174 1.36902L34.4472 1.36902C36.2269 1.36902 37.6696 2.81175 37.6696 4.59145L37.6696 4.88777C37.6696 6.50381 36.3595 7.81387 34.7435 7.81387C34.232 7.81387 33.8174 8.22851 33.8174 8.73998L33.8174 18.7409C33.8174 20.8888 32.0761 22.6301 29.9282 22.6301C27.7803 22.6301 26.0391 20.8888 26.0391 18.7409Z" fill="#2AAFD3" stroke="#757574" stroke-width="2"/>
<path d="M43.4482 18.7409L43.4482 7.36902C43.4482 4.05531 40.762 1.36902 37.4482 1.36902L36.6699 1.36902L35.0401 1.36902C33.2604 1.36902 31.8177 2.81175 31.8177 4.59145L31.8177 4.88777C31.8177 6.50381 33.1278 7.81387 34.7438 7.81387C35.2553 7.81387 35.6699 8.22851 35.6699 8.73998L35.6699 18.7409C35.6699 20.8888 37.4112 22.6301 39.5591 22.6301C41.707 22.6301 43.4482 20.8888 43.4482 18.7409Z" fill="#5CC9B9" stroke="#757574" stroke-width="2"/>
<path d="M43.4482 18.7409L43.4482 16.8147C43.4482 13.603 40.8447 10.9995 37.633 10.9995L34.7438 10.9995C33.1278 10.9995 31.8177 12.3095 31.8177 13.9256C31.8177 15.5416 33.1278 16.8517 34.7438 16.8517C35.2553 16.8517 35.6699 17.2663 35.6699 17.7778L35.6699 18.7409C35.6699 20.8888 37.4112 22.63 39.5591 22.63C41.707 22.63 43.4482 20.8888 43.4482 18.7409Z" fill="#8DE29E" stroke="#757574" stroke-width="2"/>
<path d="M60.7852 18.7409L60.7852 7.36902C60.7852 4.05531 58.0989 1.36902 54.7852 1.36902L49.3763 1.36902C46.0626 1.36902 43.3763 4.05531 43.3763 7.36902L43.3763 18.7409C43.3763 20.8888 45.1176 22.6301 47.2655 22.6301C49.4134 22.6301 51.1546 20.8888 51.1546 18.7409L51.1546 8.73998C51.1546 8.22851 51.5693 7.81388 52.0807 7.81388C52.5922 7.81388 53.0068 8.22851 53.0068 8.73998L53.0068 18.7409C53.0068 20.8888 54.7481 22.6301 56.896 22.6301C59.0439 22.6301 60.7852 20.8888 60.7852 18.7409Z" fill="#8DE29E" stroke="#757574" stroke-width="2"/>
<path d="M70.4131 18.7409L70.4131 7.36902C70.4131 4.05531 67.7268 1.36902 64.4131 1.36902L59.0042 1.36902C55.6905 1.36902 53.0042 4.05531 53.0042 7.36902L53.0042 18.7409C53.0042 20.8888 54.7455 22.6301 56.8934 22.6301C59.0413 22.6301 60.7826 20.8888 60.7826 18.7409L60.7826 8.73998C60.7826 8.22851 61.1972 7.81388 61.7087 7.81388C62.2201 7.81388 62.6348 8.22851 62.6348 8.73998L62.6348 18.7409C62.6348 20.8888 64.376 22.6301 66.5239 22.6301C68.6718 22.6301 70.4131 20.8888 70.4131 18.7409Z" fill="#2AAFD3" stroke="#757574" stroke-width="2"/>
<path d="M60.7852 18.7409L60.7852 7.36902C60.7852 4.05531 58.0989 1.36902 54.7852 1.36902L49.3763 1.36902C46.0626 1.36902 43.3763 4.05531 43.3763 7.36902L43.3763 18.7409C43.3763 20.8888 45.1176 22.6301 47.2655 22.6301C49.4134 22.6301 51.1546 20.8888 51.1546 18.7409L51.1546 8.73998C51.1546 8.22851 51.5693 7.81388 52.0807 7.81388C52.5922 7.81388 53.0068 8.22851 53.0068 8.73998L53.0068 18.7409C53.0068 20.8888 54.7481 22.6301 56.896 22.6301C59.0439 22.6301 60.7852 20.8888 60.7852 18.7409Z" fill="#8DE29E" fill-opacity="0.5" stroke="#757574" stroke-width="2"/>
<path d="M73.56 22.6301L85.5986 22.6301C88.9123 22.6301 91.5986 19.9438 91.5986 16.6301L91.5986 14.7772C91.5986 11.4635 88.9123 8.77718 85.5986 8.77717L81.2644 8.77717C79.4847 8.77717 78.042 10.2199 78.042 11.9996C78.042 13.7793 79.4847 15.222 81.2644 15.222L83.3387 15.222C83.6047 15.222 83.8203 15.4377 83.8203 15.7037C83.8203 15.9696 83.6047 16.1853 83.3387 16.1853L73.56 16.1853C71.7803 16.1853 70.3376 17.628 70.3376 19.4077C70.3376 21.1874 71.7803 22.6301 73.56 22.6301Z" fill="#8DE29E" stroke="#757574" stroke-width="2"/>
<path d="M88.3765 1.36908L76.3379 1.36908C73.0242 1.36908 70.3379 4.05536 70.3379 7.36907L70.3379 9.22203C70.3379 12.5357 73.0242 15.222 76.3379 15.222L82.5982 15.222C84.3779 15.222 85.8206 13.7793 85.8206 11.9996C85.8206 10.2199 84.3779 8.77717 82.5982 8.77717L78.5978 8.77717C78.3318 8.77717 78.1162 8.56154 78.1162 8.29555C78.1162 8.02956 78.3318 7.81393 78.5978 7.81393L88.3765 7.81394C90.1562 7.81394 91.5989 6.37121 91.5989 4.59151C91.5989 2.81181 90.1562 1.36908 88.3765 1.36908Z" fill="#2AAFD3" stroke="#757574" stroke-width="2"/>
<path d="M73.56 22.6301L85.5986 22.6301C88.9123 22.6301 91.5986 19.9438 91.5986 16.6301L91.5986 14.7772C91.5986 11.4635 88.9123 8.77717 85.5986 8.77717L79.3383 8.77717C77.5586 8.77717 76.1159 10.2199 76.1159 11.9996C76.1159 13.7793 77.5586 15.222 79.3383 15.222L83.3387 15.222C83.6047 15.222 83.8203 15.4377 83.8203 15.7037C83.8203 15.9696 83.6047 16.1853 83.3387 16.1853L73.56 16.1853C71.7803 16.1853 70.3376 17.628 70.3376 19.4077C70.3376 21.1874 71.7803 22.6301 73.56 22.6301Z" fill="#8DE29E" fill-opacity="0.5" stroke="#757574" stroke-width="2"/>
<path d="M12.4092 2.36987C15.1706 2.36987 17.4092 4.60845 17.4092 7.36987L17.4092 18.7418C17.4092 20.3374 16.1157 21.6309 14.52 21.6309V21.6309C12.9244 21.6309 11.6309 20.3374 11.6309 18.7418L11.6309 11.63C11.6309 8.9706 9.475 6.81473 6.81561 6.81473L4.22277 6.81473C2.99536 6.81473 2.00034 5.81971 2.00034 4.5923V4.5923C2.00034 3.36489 2.99535 2.36987 4.22277 2.36987L12.4092 2.36987Z" fill="#8DE29E"/>
<path d="M22.2222 8.14813C23.8178 8.14813 25.1113 9.44165 25.1113 11.0373L25.1113 11.5188L25.1113 18.7417C25.1113 20.3374 23.8178 21.6309 22.2222 21.6309V21.6309C20.6265 21.6309 19.333 20.3373 19.333 18.7417L19.333 11.5188L19.333 11.0373C19.333 9.44165 20.6265 8.14813 22.2222 8.14813V8.14813Z" fill="#2AAFD3"/>
<circle cx="22.2222" cy="5.25897" r="2.88916" fill="#8DE29E"/>
<path d="M32.0391 2.36993C29.2776 2.36993 27.0391 4.60851 27.0391 7.36993L27.0391 18.7418C27.0391 20.3375 28.3326 21.631 29.9282 21.631V21.631C31.5239 21.631 32.8174 20.3375 32.8174 18.7418L32.8174 8.74089C32.8174 7.67714 33.6797 6.81479 34.7435 6.81479V6.81479C35.8072 6.81479 36.6696 5.95244 36.6696 4.88869L36.6696 4.59236C36.6696 3.36495 35.6746 2.36993 34.4472 2.36993L32.8174 2.36993L32.0391 2.36993Z" fill="#2AAFD3"/>
<path d="M37.4482 2.36993C40.2097 2.36993 42.4482 4.60851 42.4482 7.36993L42.4482 18.7418C42.4482 20.3375 41.1547 21.631 39.5591 21.631V21.631C37.9634 21.631 36.6699 20.3375 36.6699 18.7418L36.6699 8.74089C36.6699 7.67714 35.8076 6.81479 34.7438 6.81479V6.81479C33.6801 6.81479 32.8177 5.95244 32.8177 4.88869L32.8177 4.59236C32.8177 3.36495 33.8127 2.36993 35.0401 2.36993L36.6699 2.36993L37.4482 2.36993Z" fill="#5CC9B9"/>
<path d="M37.633 12.0004C40.2924 12.0004 42.4482 14.1562 42.4482 16.8156L42.4482 18.7418C42.4482 20.3374 41.1547 21.631 39.5591 21.631V21.631C37.9634 21.631 36.6699 20.3374 36.6699 18.7418L36.6699 17.7787C36.6699 16.7149 35.8076 15.8526 34.7438 15.8526V15.8526C33.6801 15.8526 32.8177 14.9902 32.8177 13.9265V13.9265C32.8177 12.8627 33.6801 12.0004 34.7438 12.0004L37.633 12.0004Z" fill="#8DE29E"/>
<path d="M54.7852 2.36993C57.5466 2.36993 59.7852 4.60851 59.7852 7.36993L59.7852 18.7418C59.7852 20.3375 58.4916 21.631 56.896 21.631V21.631C55.3004 21.631 54.0068 20.3375 54.0068 18.7418L54.0068 8.7409C54.0068 7.67714 53.1445 6.81479 52.0807 6.81479V6.81479C51.017 6.81479 50.1546 7.67714 50.1546 8.7409L50.1546 18.7418C50.1546 20.3375 48.8611 21.631 47.2655 21.631V21.631C45.6698 21.631 44.3763 20.3375 44.3763 18.7418L44.3763 7.36993C44.3763 4.60851 46.6149 2.36993 49.3763 2.36993L54.7852 2.36993Z" fill="#8DE29E"/>
<path d="M64.4131 2.36993C67.1745 2.36993 69.4131 4.60851 69.4131 7.36993L69.4131 18.7418C69.4131 20.3375 68.1196 21.631 66.5239 21.631V21.631C64.9283 21.631 63.6348 20.3375 63.6348 18.7418L63.6348 8.7409C63.6348 7.67714 62.7724 6.81479 61.7087 6.81479V6.81479C60.6449 6.81479 59.7826 7.67714 59.7826 8.7409L59.7826 18.7418C59.7826 20.3375 58.489 21.631 56.8934 21.631V21.631C55.2978 21.631 54.0042 20.3375 54.0042 18.7418L54.0042 7.36993C54.0042 4.60851 56.2428 2.36993 59.0042 2.36993L64.4131 2.36993Z" fill="#2AAFD3"/>
<path d="M54.7852 2.36993C57.5466 2.36993 59.7852 4.60851 59.7852 7.36993L59.7852 18.7418C59.7852 20.3375 58.4916 21.631 56.896 21.631V21.631C55.3004 21.631 54.0068 20.3375 54.0068 18.7418L54.0068 8.7409C54.0068 7.67714 53.1445 6.81479 52.0807 6.81479V6.81479C51.017 6.81479 50.1546 7.67714 50.1546 8.7409L50.1546 18.7418C50.1546 20.3375 48.8611 21.631 47.2655 21.631V21.631C45.6698 21.631 44.3763 20.3375 44.3763 18.7418L44.3763 7.36993C44.3763 4.60851 46.6149 2.36993 49.3763 2.36993L54.7852 2.36993Z" fill="#8DE29E" fill-opacity="0.5"/>
<path d="M90.5986 16.6309C90.5986 19.3923 88.3601 21.6309 85.5986 21.6309L73.56 21.6309C72.3326 21.6309 71.3376 20.6359 71.3376 19.4085V19.4085C71.3376 18.1811 72.3326 17.1861 73.56 17.1861L83.3387 17.1861C84.157 17.1861 84.8203 16.5227 84.8203 15.7044V15.7044C84.8203 14.8862 84.157 14.2228 83.3387 14.2228L81.2644 14.2228C80.037 14.2228 79.042 13.2278 79.042 12.0004V12.0004C79.042 10.773 80.037 9.77797 81.2644 9.77797L85.5986 9.77797C88.3601 9.77797 90.5986 12.0165 90.5986 14.778L90.5986 16.6309Z" fill="#8DE29E"/>
<path d="M71.3379 7.36981C71.3379 4.60838 73.5765 2.36981 76.3379 2.36981L88.3765 2.36981C89.6039 2.36981 90.5989 3.36483 90.5989 4.59224V4.59224C90.5989 5.81965 89.6039 6.81467 88.3765 6.81467L78.5978 6.81467C77.7796 6.81467 77.1162 7.47801 77.1162 8.29629V8.29629C77.1162 9.11456 77.7796 9.77791 78.5978 9.77791L82.5982 9.77791C83.8256 9.77791 84.8206 10.7729 84.8206 12.0003V12.0003C84.8206 13.2277 83.8256 14.2228 82.5982 14.2228L76.3379 14.2228C73.5765 14.2228 71.3379 11.9842 71.3379 9.22276L71.3379 7.36981Z" fill="#2AAFD3"/>
<path d="M90.5986 16.6309C90.5986 19.3923 88.3601 21.6309 85.5986 21.6309L73.56 21.6309C72.3326 21.6309 71.3376 20.6359 71.3376 19.4085V19.4085C71.3376 18.1811 72.3326 17.1861 73.56 17.1861L83.3387 17.1861C84.157 17.1861 84.8203 16.5227 84.8203 15.7044V15.7044C84.8203 14.8862 84.157 14.2228 83.3387 14.2228L79.3383 14.2228C78.1109 14.2228 77.1159 13.2278 77.1159 12.0004V12.0004C77.1159 10.773 78.1109 9.77797 79.3383 9.77797L85.5986 9.77797C88.3601 9.77797 90.5986 12.0165 90.5986 14.778L90.5986 16.6309Z" fill="#8DE29E" fill-opacity="0.5"/>
<path d="M99.2471 1.89062V9H98.0312V1.89062H99.2471ZM101.479 1.89062V2.86719H95.8193V1.89062H101.479ZM103.725 1.89062V9H102.499V1.89062H103.725ZM105.746 1.89062H106.84L108.896 7.37402L110.946 1.89062H112.04L109.325 9H108.456L105.746 1.89062ZM105.248 1.89062H106.288L106.469 6.63672V9H105.248V1.89062ZM111.498 1.89062H112.543V9H111.317V6.63672L111.498 1.89062ZM116.854 2.83789L114.73 9H113.446L116.122 1.89062H116.942L116.854 2.83789ZM118.632 9L116.503 2.83789L116.41 1.89062H117.235L119.921 9H118.632ZM118.529 6.36328V7.33496H114.662V6.36328H118.529ZM125.414 4.85938V5.83105H121.64V4.85938H125.414ZM121.942 1.89062V9H120.717V1.89062H121.942ZM126.356 1.89062V9H125.136V1.89062H126.356ZM131.615 1.89062V9H130.39V1.89062H131.615ZM138.778 1.89062V9H137.553L134.364 3.90723V9H133.139V1.89062H134.364L137.562 6.99316V1.89062H138.778ZM143.017 1.89062V9H141.801V1.89062H143.017ZM145.248 1.89062V2.86719H139.589V1.89062H145.248ZM150.839 8.02832V9H147.064V8.02832H150.839ZM147.411 1.89062V9H146.186V1.89062H147.411ZM150.346 4.85938V5.81641H147.064V4.85938H150.346ZM150.814 1.89062V2.86719H147.064V1.89062H150.814ZM151.84 1.89062H154.354C154.895 1.89062 155.355 1.97201 155.736 2.13477C156.117 2.29753 156.409 2.53841 156.61 2.85742C156.815 3.17318 156.918 3.5638 156.918 4.0293C156.918 4.38411 156.853 4.69661 156.723 4.9668C156.592 5.23698 156.409 5.46484 156.171 5.65039C155.933 5.83268 155.65 5.97428 155.321 6.0752L154.95 6.25586H152.689L152.68 5.28418H154.374C154.667 5.28418 154.911 5.2321 155.106 5.12793C155.302 5.02376 155.448 4.88216 155.546 4.70312C155.647 4.52083 155.697 4.31576 155.697 4.08789C155.697 3.84049 155.648 3.62565 155.551 3.44336C155.456 3.25781 155.31 3.11621 155.111 3.01855C154.913 2.91764 154.66 2.86719 154.354 2.86719H153.065V9H151.84V1.89062ZM155.897 9L154.228 5.80664L155.512 5.80176L157.206 8.93652V9H155.897ZM163.778 1.89062V9H162.553L159.364 3.90723V9H158.139V1.89062H159.364L162.562 6.99316V1.89062H163.778ZM168.095 2.83789L165.971 9H164.687L167.362 1.89062H168.183L168.095 2.83789ZM169.872 9L167.743 2.83789L167.65 1.89062H168.476L171.161 9H169.872ZM169.77 6.36328V7.33496H165.902V6.36328H169.77ZM176.41 8.02832V9H172.841V8.02832H176.41ZM173.183 1.89062V9H171.957V1.89062H173.183ZM182.616 2.83789L180.492 9H179.208L181.884 1.89062H182.704L182.616 2.83789ZM184.394 9L182.265 2.83789L182.172 1.89062H182.997L185.683 9H184.394ZM184.291 6.36328V7.33496H180.424V6.36328H184.291ZM190.38 1.89062H191.601V6.6416C191.601 7.18197 191.483 7.63444 191.249 7.99902C191.015 8.36361 190.696 8.63867 190.292 8.82422C189.892 9.00651 189.444 9.09766 188.949 9.09766C188.438 9.09766 187.982 9.00651 187.582 8.82422C187.182 8.63867 186.866 8.36361 186.635 7.99902C186.407 7.63444 186.293 7.18197 186.293 6.6416V1.89062H187.514V6.6416C187.514 6.9834 187.572 7.26497 187.689 7.48633C187.807 7.70443 187.973 7.86556 188.188 7.96973C188.402 8.07389 188.656 8.12598 188.949 8.12598C189.242 8.12598 189.494 8.07389 189.706 7.96973C189.921 7.86556 190.087 7.70443 190.204 7.48633C190.321 7.26497 190.38 6.9834 190.38 6.6416V1.89062ZM194.999 9H193.48L193.49 8.02832H194.999C195.438 8.02832 195.806 7.93229 196.103 7.74023C196.402 7.54818 196.627 7.27311 196.776 6.91504C196.929 6.55697 197.006 6.13053 197.006 5.63574V5.25C197.006 4.86589 196.962 4.52572 196.874 4.22949C196.789 3.93327 196.662 3.68424 196.493 3.48242C196.327 3.2806 196.122 3.1276 195.878 3.02344C195.637 2.91927 195.359 2.86719 195.043 2.86719H193.451V1.89062H195.043C195.515 1.89062 195.946 1.97038 196.337 2.12988C196.728 2.28613 197.064 2.51237 197.348 2.80859C197.634 3.10482 197.854 3.45964 198.007 3.87305C198.16 4.28646 198.236 4.7487 198.236 5.25977V5.63574C198.236 6.14681 198.16 6.60905 198.007 7.02246C197.854 7.43587 197.634 7.79069 197.348 8.08691C197.061 8.37988 196.719 8.60612 196.322 8.76562C195.928 8.92188 195.487 9 194.999 9ZM194.159 1.89062V9H192.934V1.89062H194.159ZM200.775 1.89062V9H199.55V1.89062H200.775ZM205.077 1.89062V9H203.861V1.89062H205.077ZM207.309 1.89062V2.86719H201.649V1.89062H207.309ZM96.8203 13.8906H97.9141L99.9697 19.374L102.021 13.8906H103.114L100.399 21H99.5303L96.8203 13.8906ZM96.3223 13.8906H97.3623L97.543 18.6367V21H96.3223V13.8906ZM102.572 13.8906H103.617V21H102.392V18.6367L102.572 13.8906ZM107.929 14.8379L105.805 21H104.521L107.196 13.8906H108.017L107.929 14.8379ZM109.706 21L107.577 14.8379L107.484 13.8906H108.31L110.995 21H109.706ZM109.604 18.3633V19.335H105.736V18.3633H109.604ZM117.431 13.8906V21H116.205L113.017 15.9072V21H111.791V13.8906H113.017L116.215 18.9932V13.8906H117.431ZM121.747 14.8379L119.623 21H118.339L121.015 13.8906H121.835L121.747 14.8379ZM123.524 21L121.396 14.8379L121.303 13.8906H122.128L124.813 21H123.524ZM123.422 18.3633V19.335H119.555V18.3633H123.422ZM130.99 17.3672V20.082C130.889 20.2155 130.731 20.362 130.517 20.5215C130.305 20.6777 130.023 20.8128 129.672 20.9268C129.32 21.0407 128.882 21.0977 128.358 21.0977C127.912 21.0977 127.504 21.0228 127.133 20.873C126.762 20.7201 126.441 20.4971 126.171 20.2041C125.904 19.9111 125.697 19.5547 125.551 19.1348C125.404 18.7116 125.331 18.2298 125.331 17.6895V17.1963C125.331 16.6592 125.398 16.1807 125.531 15.7607C125.668 15.3376 125.863 14.9795 126.117 14.6865C126.371 14.3936 126.677 14.1722 127.035 14.0225C127.396 13.8695 127.805 13.793 128.261 13.793C128.843 13.793 129.325 13.8906 129.706 14.0859C130.09 14.278 130.386 14.5449 130.595 14.8867C130.803 15.2285 130.935 15.6191 130.99 16.0586H129.789C129.75 15.8112 129.674 15.5898 129.56 15.3945C129.449 15.1992 129.289 15.0462 129.081 14.9355C128.876 14.8216 128.609 14.7646 128.28 14.7646C127.997 14.7646 127.748 14.8184 127.533 14.9258C127.318 15.0332 127.139 15.1911 126.996 15.3994C126.856 15.6077 126.75 15.8617 126.679 16.1611C126.607 16.4606 126.571 16.8024 126.571 17.1865V17.6895C126.571 18.0801 126.612 18.4268 126.693 18.7295C126.778 19.0322 126.898 19.2878 127.055 19.4961C127.214 19.7044 127.408 19.8623 127.636 19.9697C127.864 20.0739 128.121 20.126 128.407 20.126C128.687 20.126 128.917 20.1032 129.096 20.0576C129.275 20.0088 129.416 19.9518 129.521 19.8867C129.628 19.8184 129.711 19.7533 129.77 19.6914V18.2803H128.29V17.3672H130.99ZM137.001 20.0283V21H133.227V20.0283H137.001ZM133.573 13.8906V21H132.348V13.8906H133.573ZM136.508 16.8594V17.8164H133.227V16.8594H136.508ZM136.977 13.8906V14.8672H133.227V13.8906H136.977ZM138.5 13.8906H139.594L141.649 19.374L143.7 13.8906H144.794L142.079 21H141.21L138.5 13.8906ZM138.002 13.8906H139.042L139.223 18.6367V21H138.002V13.8906ZM144.252 13.8906H145.297V21H144.071V18.6367L144.252 13.8906ZM151.405 20.0283V21H147.631V20.0283H151.405ZM147.978 13.8906V21H146.752V13.8906H147.978ZM150.912 16.8594V17.8164H147.631V16.8594H150.912ZM151.381 13.8906V14.8672H147.631V13.8906H151.381ZM158.046 13.8906V21H156.82L153.632 15.9072V21H152.406V13.8906H153.632L156.83 18.9932V13.8906H158.046ZM162.284 13.8906V21H161.068V13.8906H162.284ZM164.516 13.8906V14.8672H158.856V13.8906H164.516ZM171.449 19.1689C171.449 19.0225 171.426 18.8923 171.381 18.7783C171.339 18.6644 171.262 18.5602 171.151 18.4658C171.041 18.3714 170.884 18.2803 170.683 18.1924C170.484 18.1012 170.23 18.0085 169.921 17.9141C169.582 17.8099 169.27 17.6943 168.983 17.5674C168.7 17.4372 168.453 17.2874 168.241 17.1182C168.03 16.9456 167.865 16.7487 167.748 16.5273C167.631 16.3027 167.572 16.0439 167.572 15.751C167.572 15.4613 167.632 15.1976 167.753 14.96C167.877 14.7223 168.051 14.5173 168.275 14.3447C168.503 14.1689 168.772 14.0339 169.081 13.9395C169.39 13.8418 169.732 13.793 170.106 13.793C170.634 13.793 171.088 13.8906 171.469 14.0859C171.853 14.2812 172.147 14.5433 172.353 14.8721C172.561 15.2008 172.665 15.5638 172.665 15.9609H171.449C171.449 15.7266 171.399 15.5199 171.298 15.3408C171.2 15.1585 171.05 15.0153 170.849 14.9111C170.65 14.807 170.398 14.7549 170.092 14.7549C169.802 14.7549 169.561 14.7988 169.369 14.8867C169.177 14.9746 169.034 15.0934 168.939 15.2432C168.845 15.3929 168.798 15.5622 168.798 15.751C168.798 15.8844 168.829 16.0065 168.891 16.1172C168.952 16.2246 169.047 16.3255 169.174 16.4199C169.301 16.5111 169.46 16.5973 169.652 16.6787C169.844 16.7601 170.071 16.8382 170.331 16.9131C170.725 17.0303 171.068 17.1605 171.361 17.3037C171.654 17.4437 171.898 17.6032 172.094 17.7822C172.289 17.9613 172.436 18.1647 172.533 18.3926C172.631 18.6172 172.68 18.8727 172.68 19.1592C172.68 19.4587 172.619 19.7288 172.499 19.9697C172.379 20.2074 172.206 20.4108 171.981 20.5801C171.76 20.7461 171.493 20.8747 171.181 20.9658C170.871 21.0537 170.526 21.0977 170.146 21.0977C169.804 21.0977 169.467 21.0521 169.135 20.9609C168.806 20.8698 168.507 20.7314 168.236 20.5459C167.966 20.3571 167.751 20.1227 167.592 19.8428C167.432 19.5596 167.353 19.2292 167.353 18.8516H168.578C168.578 19.0827 168.617 19.2796 168.695 19.4424C168.777 19.6051 168.889 19.7386 169.032 19.8428C169.175 19.9437 169.341 20.0186 169.53 20.0674C169.722 20.1162 169.927 20.1406 170.146 20.1406C170.432 20.1406 170.671 20.0999 170.863 20.0186C171.059 19.9372 171.205 19.8232 171.303 19.6768C171.4 19.5303 171.449 19.361 171.449 19.1689ZM174.442 13.8906L176.093 17.2842L177.743 13.8906H179.101L176.708 18.3828V21H175.473V18.3828L173.08 13.8906H174.442ZM183.539 19.1689C183.539 19.0225 183.516 18.8923 183.471 18.7783C183.428 18.6644 183.352 18.5602 183.241 18.4658C183.131 18.3714 182.974 18.2803 182.772 18.1924C182.574 18.1012 182.32 18.0085 182.011 17.9141C181.672 17.8099 181.36 17.6943 181.073 17.5674C180.79 17.4372 180.543 17.2874 180.331 17.1182C180.119 16.9456 179.955 16.7487 179.838 16.5273C179.721 16.3027 179.662 16.0439 179.662 15.751C179.662 15.4613 179.722 15.1976 179.843 14.96C179.966 14.7223 180.141 14.5173 180.365 14.3447C180.593 14.1689 180.862 14.0339 181.171 13.9395C181.48 13.8418 181.822 13.793 182.196 13.793C182.724 13.793 183.178 13.8906 183.559 14.0859C183.943 14.2812 184.237 14.5433 184.442 14.8721C184.651 15.2008 184.755 15.5638 184.755 15.9609H183.539C183.539 15.7266 183.489 15.5199 183.388 15.3408C183.29 15.1585 183.14 15.0153 182.938 14.9111C182.74 14.807 182.488 14.7549 182.182 14.7549C181.892 14.7549 181.651 14.7988 181.459 14.8867C181.267 14.9746 181.124 15.0934 181.029 15.2432C180.935 15.3929 180.888 15.5622 180.888 15.751C180.888 15.8844 180.919 16.0065 180.98 16.1172C181.042 16.2246 181.137 16.3255 181.264 16.4199C181.391 16.5111 181.55 16.5973 181.742 16.6787C181.934 16.7601 182.16 16.8382 182.421 16.9131C182.815 17.0303 183.158 17.1605 183.451 17.3037C183.744 17.4437 183.988 17.6032 184.184 17.7822C184.379 17.9613 184.525 18.1647 184.623 18.3926C184.721 18.6172 184.77 18.8727 184.77 19.1592C184.77 19.4587 184.709 19.7288 184.589 19.9697C184.468 20.2074 184.296 20.4108 184.071 20.5801C183.85 20.7461 183.583 20.8747 183.271 20.9658C182.961 21.0537 182.616 21.0977 182.235 21.0977C181.894 21.0977 181.557 21.0521 181.225 20.9609C180.896 20.8698 180.596 20.7314 180.326 20.5459C180.056 20.3571 179.841 20.1227 179.682 19.8428C179.522 19.5596 179.442 19.2292 179.442 18.8516H180.668C180.668 19.0827 180.707 19.2796 180.785 19.4424C180.867 19.6051 180.979 19.7386 181.122 19.8428C181.265 19.9437 181.431 20.0186 181.62 20.0674C181.812 20.1162 182.017 20.1406 182.235 20.1406C182.522 20.1406 182.761 20.0999 182.953 20.0186C183.148 19.9372 183.295 19.8232 183.393 19.6768C183.49 19.5303 183.539 19.361 183.539 19.1689ZM188.778 13.8906V21H187.562V13.8906H188.778ZM191.01 13.8906V14.8672H185.351V13.8906H191.01ZM196.601 20.0283V21H192.826V20.0283H196.601ZM193.173 13.8906V21H191.947V13.8906H193.173ZM196.107 16.8594V17.8164H192.826V16.8594H196.107ZM196.576 13.8906V14.8672H192.826V13.8906H196.576ZM198.1 13.8906H199.193L201.249 19.374L203.3 13.8906H204.394L201.679 21H200.81L198.1 13.8906ZM197.602 13.8906H198.642L198.822 18.6367V21H197.602V13.8906ZM203.852 13.8906H204.896V21H203.671V18.6367L203.852 13.8906Z" fill="#757574"/>
</svg>
