<svg width="346" height="319" viewBox="0 0 346 319" fill="none" xmlns="http://www.w3.org/2000/svg">
<g opacity="0.5">
<path d="M155.749 236.677L126.478 185.979L67.9376 185.979L38.6672 236.677L67.9376 287.375L126.478 287.375L155.749 236.677Z" stroke="#5EDD78" stroke-width="2"/>
<path d="M100.197 80.4321L83.1607 50.9246L49.0884 50.9246L32.0522 80.4321L49.0884 109.94L83.1607 109.94L100.197 80.4321Z" stroke="#5EDD78" stroke-width="4"/>
<path d="M256.04 144.843L205.836 57.8859L105.426 57.8859L55.2207 144.843L105.426 231.801L205.836 231.801L256.04 144.843Z" stroke="#76A7F4" stroke-width="2"/>
<path d="M57.1174 103.115L26.5083 103.115L11.2037 129.623L26.5083 156.131L57.1174 156.131L72.422 129.623L57.1174 103.115Z" fill="#84D9F7"/>
<path d="M295.184 41.8129L280.457 16.3046L251.002 16.3046L236.275 41.8129L251.002 67.3212L280.457 67.3211L295.184 41.8129Z" stroke="#76A7F4" stroke-width="2"/>
<path d="M316.831 144.843L281.851 84.2556L211.89 84.2556L176.91 144.843L211.89 205.431L281.851 205.431L316.831 144.843Z" stroke="#84D9F7" stroke-width="4"/>
<circle cx="155.867" cy="56.2229" r="10" fill="#D9D9D9"/>
<circle cx="182.867" cy="233.223" r="10" fill="#D9D9D9"/>
<ellipse cx="51.8669" cy="264.723" rx="10" ry="10.5" fill="#D9D9D9"/>
</g>
</svg>
