<svg width="324" height="299" viewBox="0 0 324 299" fill="none" xmlns="http://www.w3.org/2000/svg">
<g opacity="0.5">
<path d="M178.055 76.8882L205.461 124.356L260.272 124.356L287.677 76.8882L260.272 29.4205L205.461 29.4205L178.055 76.8882Z" stroke="#5EDD78" stroke-width="2"/>
<path d="M230.208 223.371L246.107 250.91L277.906 250.91L293.806 223.371L277.906 195.832L246.107 195.832L230.208 223.371Z" stroke="#5EDD78" stroke-width="4"/>
<path d="M84.0296 162.984L131.062 244.446L225.126 244.446L272.158 162.984L225.126 81.5222L131.062 81.5221L84.0296 162.984Z" stroke="#76A7F4" stroke-width="2"/>
<path d="M270.451 202.105L299.148 202.105L313.496 177.253L299.148 152.401L270.451 152.401L256.103 177.253L270.451 202.105Z" fill="#84D9F7"/>
<path d="M47.3317 259.577L61.1027 283.429L88.6447 283.429L102.416 259.577L88.6447 235.725L61.1027 235.725L47.3317 259.577Z" stroke="#76A7F4" stroke-width="2"/>
<path d="M27.1093 162.984L59.8319 219.661L125.277 219.661L158 162.984L125.277 106.307L59.8319 106.307L27.1093 162.984Z" stroke="#84D9F7" stroke-width="4"/>
<circle cx="178.5" cy="246.5" r="9.5" transform="rotate(180 178.5 246.5)" fill="#D9D9D9"/>
<circle cx="152.5" cy="80.5" r="9.5" transform="rotate(180 152.5 80.5)" fill="#D9D9D9"/>
<ellipse cx="275" cy="50.5" rx="9" ry="9.5" transform="rotate(180 275 50.5)" fill="#D9D9D9"/>
</g>
</svg>
