<svg width="411" height="200" viewBox="0 0 411 200" fill="none" xmlns="http://www.w3.org/2000/svg">
<g opacity="0.15">
<path opacity="0.2" d="M224.979 -26.0211L260.187 34.9611L330.603 34.9611L365.811 -26.0211L330.603 -87.0032L260.187 -87.0032L224.979 -26.0211Z" stroke="#5EDD78"/>
<path d="M291.403 159.795L311.882 195.265L352.84 195.265L373.319 159.795L352.84 124.324L311.882 124.324L291.403 159.795Z" stroke="#5EDD78" stroke-width="4"/>
<path d="M106.283 83.1928L166.099 186.797L285.731 186.797L345.546 83.1928L285.731 -20.4114L166.099 -20.4114L106.283 83.1928Z" stroke="#76A7F4" stroke-width="2"/>
<path d="M343.072 132.819L379.474 132.819L397.675 101.294L379.474 69.7685L343.072 69.7685L324.871 101.294L343.072 132.819Z" fill="#84D9F7"/>
<path d="M59.7318 205.723L77.3555 236.248L112.603 236.248L130.227 205.723L112.603 175.198L77.3555 175.198L59.7318 205.723Z" stroke="#76A7F4" stroke-width="2"/>
<path d="M33.7685 83.193L75.5877 155.626L159.226 155.626L201.045 83.193L159.226 10.7599L75.5878 10.7599L33.7685 83.193Z" stroke="#84D9F7" stroke-width="4"/>
</g>
</svg>
