<svg width="338" height="200" viewBox="0 0 338 200" fill="none" xmlns="http://www.w3.org/2000/svg">
<g opacity="0.15">
<path opacity="0.2" d="M152.237 175.381L123.635 125.84L66.4296 125.84L37.8272 175.381L66.4296 224.922L123.635 224.922L152.237 175.381Z" stroke="#5EDD78" stroke-width="2"/>
<path d="M97.9024 22.6319L81.2733 -6.17054L48.0151 -6.17054L31.3859 22.6319L48.0151 51.4344L81.2733 51.4344L97.9024 22.6319Z" stroke="#5EDD78" stroke-width="4"/>
<path d="M250.284 85.6018L201.216 0.61267L103.079 0.612674L54.0101 85.6019L103.079 170.591L201.216 170.591L250.284 85.6018Z" stroke="#76A7F4" stroke-width="2"/>
<path d="M55.8388 44.8072L25.9146 44.8072L10.9526 70.7223L25.9146 96.6374L55.8388 96.6374L70.8009 70.7223L55.8388 44.8072Z" fill="#84D9F7"/>
<path d="M288.552 -15.1229L274.168 -40.038L245.398 -40.038L231.014 -15.1229L245.398 9.79217L274.168 9.79217L288.552 -15.1229Z" stroke="#76A7F4" stroke-width="2"/>
<path d="M309.689 85.6017L275.518 26.4146L207.174 26.4146L173.002 85.6017L207.174 144.789L275.518 144.789L309.689 85.6017Z" stroke="#84D9F7" stroke-width="4"/>
</g>
</svg>
